# This file uses centimeters as units for non-parametric coordinates.

mtllib butterflyA.mtl
g default
v 0.000000 -0.133401 -1.716328
v 0.000000 -0.133401 1.517924
v 0.329606 -0.133401 -0.099202
v 0.000000 0.110262 -0.099202
v -0.329606 -0.133401 -0.099202
v 0.329606 -0.133401 0.709361
v 0.000000 0.110262 0.709361
v -0.329606 -0.133401 0.709361
v 0.329606 -0.133401 -0.907765
v 0.000000 0.110262 -0.907765
v -0.329606 -0.133401 -0.907765
v 0.000000 -0.377064 -0.907765
v 0.000000 -0.377064 -0.099202
v 0.000000 -0.377064 0.709361
v 0.000000 -0.035240 0.882918
v -2.232627 -0.595846 3.154564
v -3.787949 -0.951502 4.204610
v -4.547345 -1.273799 3.838315
v -3.654388 -1.137702 2.275457
v -2.888709 -0.868295 0.345685
v -1.931340 -0.544463 0.492203
v -2.627585 -0.920641 -0.965747
v -0.769531 -0.379921 -3.217772
v -0.733475 -0.330273 -2.515383
v -0.317514 -0.142640 -1.754406
v 0.000000 -0.035240 -0.553249
v -2.291705 -0.700563 -1.785375
v -1.970237 -0.592370 -2.345659
v -1.478533 -0.557370 -2.817454
v -0.991715 -0.449305 -3.112219
v -1.266493 -0.523723 -3.097683
v -2.326509 -0.700698 -2.181171
v -2.627606 -0.900975 -1.407163
v -1.789650 -0.619461 -2.715994
v -1.349355 -0.491662 -4.187658
v 0.000000 -0.035240 0.882918
v 2.204450 -0.698038 3.154564
v 3.741749 -1.124923 4.204610
v 4.485502 -1.481839 3.838315
v 3.599758 -1.304776 2.275457
v 2.847294 -1.000404 0.345685
v 1.905849 -0.632839 0.492203
v 2.584037 -1.040672 -0.965747
v 0.752847 -0.414984 -3.217772
v 0.719114 -0.363729 -2.515383
v 0.312233 -0.157144 -1.754406
v 0.000000 -0.035240 -0.553249
v 2.258645 -0.805365 -1.785375
v 1.942498 -0.682486 -2.345659
v 1.452927 -0.624886 -2.817454
v 0.971601 -0.494524 -3.112219
v 1.242661 -0.581512 -3.097683
v 2.293405 -0.807102 -2.181171
v 2.584963 -1.021029 -1.407163
v 1.760855 -0.701234 -2.715994
v 1.326911 -0.553301 -4.187658
vt 0.101781 0.000000
vt 0.152672 0.250000
vt 0.000000 0.250000
vt 0.305344 0.250000
vt 0.152672 0.500000
vt 0.305344 0.500000
vt 0.152672 0.750000
vt 0.305344 0.750000
vt 0.000000 0.500000
vt 0.000000 0.750000
vt 0.152672 1.000000
vt 0.152672 0.000000
vt 0.000000 0.250000
vt 0.152672 0.250000
vt 0.305344 0.250000
vt 0.152672 0.500000
vt 0.152672 0.750000
vt 0.305344 0.500000
vt 0.305344 0.750000
vt 0.000000 0.500000
vt 0.000000 0.750000
vt 0.152672 1.000000
vt 0.158273 0.000000
vt 0.136637 0.173023
vt 0.126208 0.139150
vt 0.086082 0.112990
vt 0.102054 0.131957
vt 0.083369 0.188962
vt 0.202754 0.842867
vt 0.441524 0.918839
vt 0.379118 0.959538
vt 0.346559 0.745188
vt 0.000000 0.563397
vt 0.240740 0.519984
vt 0.000000 0.452152
vt 0.303146 0.370753
vt 0.235177 0.290040
vt 0.037243 0.270361
vt 0.297719 0.324409
vt 0.187191 0.233057
vt 0.228585 0.250783
vt 0.175573 0.188237
vt 0.308573 0.503705
vt 0.158273 0.000000
vt 0.126208 0.139150
vt 0.136637 0.173023
vt 0.086082 0.112990
vt 0.083369 0.188962
vt 0.102054 0.131957
vt 0.202754 0.842867
vt 0.379118 0.959538
vt 0.441524 0.918839
vt 0.346559 0.745188
vt 0.240740 0.519984
vt 0.000000 0.563397
vt 0.303146 0.370753
vt 0.000000 0.452152
vt 0.235177 0.290040
vt 0.037243 0.270361
vt 0.297719 0.324409
vt 0.187191 0.233057
vt 0.228585 0.250783
vt 0.175573 0.188237
vt 0.308573 0.503705
vn -0.577735 -0.781510 -0.235510
vn -0.577735 -0.781510 -0.235510
vn -0.577735 -0.781510 -0.235510
vn 0.577735 -0.781510 -0.235510
vn 0.577735 -0.781510 -0.235510
vn 0.577735 -0.781510 -0.235510
vn 0.594456 -0.804128 0.000000
vn 0.594456 -0.804128 0.000000
vn 0.594456 -0.804128 0.000000
vn 0.594456 -0.804128 0.000000
vn 0.594456 -0.804128 0.000000
vn 0.594456 -0.804128 0.000000
vn -0.594456 -0.804128 0.000000
vn -0.594456 -0.804128 0.000000
vn -0.594456 -0.804128 0.000000
vn -0.594456 -0.804128 0.000000
vn -0.594456 -0.804128 0.000000
vn -0.594456 -0.804128 0.000000
vn 0.577735 -0.781510 0.235510
vn 0.577735 -0.781510 0.235510
vn 0.577735 -0.781510 0.235510
vn -0.577735 -0.781510 0.235510
vn -0.577735 -0.781510 0.235510
vn -0.577735 -0.781510 0.235510
vn 0.594456 -0.804128 0.000000
vn 0.594456 -0.804128 0.000000
vn 0.594456 -0.804128 0.000000
vn 0.594456 -0.804128 0.000000
vn 0.594456 -0.804128 0.000000
vn 0.594456 -0.804128 0.000000
vn -0.594456 -0.804128 0.000000
vn -0.594456 -0.804128 0.000000
vn -0.594456 -0.804128 0.000000
vn -0.594456 -0.804128 0.000000
vn -0.594456 -0.804128 0.000000
vn -0.594456 -0.804128 0.000000
vn -0.577735 0.781510 -0.235510
vn -0.577735 0.781510 -0.235510
vn -0.577735 0.781510 -0.235510
vn 0.577735 0.781510 -0.235510
vn 0.577735 0.781510 -0.235510
vn 0.577735 0.781510 -0.235510
vn 0.594456 0.804128 0.000000
vn 0.594456 0.804128 0.000000
vn 0.594456 0.804128 0.000000
vn 0.594456 0.804128 0.000000
vn 0.594456 0.804128 0.000000
vn 0.594456 0.804128 0.000000
vn -0.594456 0.804128 0.000000
vn -0.594456 0.804128 0.000000
vn -0.594456 0.804128 0.000000
vn -0.594456 0.804128 0.000000
vn -0.594456 0.804128 0.000000
vn -0.594456 0.804128 0.000000
vn 0.577735 0.781510 0.235510
vn 0.577735 0.781510 0.235510
vn 0.577735 0.781510 0.235510
vn -0.577735 0.781510 0.235510
vn -0.577735 0.781510 0.235510
vn -0.577735 0.781510 0.235510
vn 0.594456 0.804128 0.000000
vn 0.594456 0.804128 0.000000
vn 0.594456 0.804128 0.000000
vn 0.594456 0.804128 0.000000
vn 0.594456 0.804128 0.000000
vn 0.594456 0.804128 0.000000
vn -0.594456 0.804128 0.000000
vn -0.594456 0.804128 0.000000
vn -0.594456 0.804128 0.000000
vn -0.594456 0.804128 0.000000
vn -0.594456 0.804128 0.000000
vn -0.594456 0.804128 0.000000
vn -0.108156 0.993429 0.037443
vn -0.108156 0.993429 0.037443
vn -0.108156 0.993429 0.037443
vn -0.319480 0.946247 -0.050485
vn -0.319480 0.946247 -0.050485
vn -0.319480 0.946247 -0.050485
vn -0.320240 0.934074 -0.157961
vn -0.320240 0.934074 -0.157961
vn -0.320240 0.934074 -0.157961
vn -0.304709 0.948036 -0.091542
vn -0.304709 0.948036 -0.091542
vn -0.304709 0.948036 -0.091542
vn -0.266287 0.961853 0.062685
vn -0.266287 0.961853 0.062685
vn -0.266287 0.961853 0.062685
vn -0.303681 0.947568 -0.099467
vn -0.303681 0.947568 -0.099467
vn -0.303681 0.947568 -0.099467
vn -0.254950 0.966954 0.000000
vn -0.254950 0.966954 0.000000
vn -0.254950 0.966954 0.000000
vn -0.271723 0.962271 -0.014213
vn -0.271723 0.962271 -0.014213
vn -0.271723 0.962271 -0.014213
vn -0.333336 0.935808 0.114673
vn -0.333336 0.935808 0.114673
vn -0.333336 0.935808 0.114673
vn -0.479158 0.876858 0.039087
vn -0.479158 0.876858 0.039087
vn -0.479158 0.876858 0.039087
vn -0.221311 0.968071 -0.117725
vn -0.221311 0.968071 -0.117725
vn -0.221311 0.968071 -0.117725
vn -0.272267 0.961769 0.029506
vn -0.272267 0.961769 0.029506
vn -0.272267 0.961769 0.029506
vn -0.280521 0.959539 0.024340
vn -0.280521 0.959539 0.024340
vn -0.280521 0.959539 0.024340
vn -0.251982 0.948442 -0.192256
vn -0.251982 0.948442 -0.192256
vn -0.251982 0.948442 -0.192256
vn -0.226031 0.960158 -0.164340
vn -0.226031 0.960158 -0.164340
vn -0.226031 0.960158 -0.164340
vn -0.264649 0.960599 -0.084911
vn -0.264649 0.960599 -0.084911
vn -0.264649 0.960599 -0.084911
vn -0.261278 0.962040 -0.078817
vn -0.261278 0.962040 -0.078817
vn -0.261278 0.962040 -0.078817
vn -0.314170 0.946382 -0.075222
vn -0.314170 0.946382 -0.075222
vn -0.314170 0.946382 -0.075222
vn -0.321076 0.947041 0.004818
vn -0.321076 0.947041 0.004818
vn -0.321076 0.947041 0.004818
vn 0.153777 0.987396 0.037443
vn 0.153777 0.987396 0.037443
vn 0.153777 0.987396 0.037443
vn 0.362705 0.930536 -0.050485
vn 0.362705 0.930536 -0.050485
vn 0.362705 0.930536 -0.050485
vn 0.362904 0.918340 -0.157961
vn 0.362904 0.918340 -0.157961
vn 0.362904 0.918340 -0.157961
vn 0.348032 0.933003 -0.091542
vn 0.348032 0.933003 -0.091542
vn 0.348032 0.933003 -0.091542
vn 0.310287 0.948574 0.062685
vn 0.310287 0.948574 0.062685
vn 0.310287 0.948574 0.062685
vn 0.346983 0.932582 -0.099467
vn 0.346983 0.932582 -0.099467
vn 0.346983 0.932582 -0.099467
vn 0.299197 0.954191 0.000000
vn 0.299197 0.954191 0.000000
vn 0.299197 0.954191 0.000000
vn 0.315736 0.948741 -0.014213
vn 0.315736 0.948741 -0.014213
vn 0.315736 0.948741 -0.014213
vn 0.376066 0.919470 0.114674
vn 0.376066 0.919470 0.114674
vn 0.376066 0.919470 0.114674
vn 0.519019 0.853869 0.039088
vn 0.519019 0.853869 0.039088
vn 0.519019 0.853869 0.039088
vn 0.265645 0.956856 -0.117725
vn 0.265645 0.956856 -0.117725
vn 0.265645 0.956856 -0.117725
vn 0.316257 0.948215 0.029506
vn 0.316257 0.948215 0.029506
vn 0.316257 0.948215 0.029506
vn 0.324399 0.945607 0.024340
vn 0.324399 0.945607 0.024340
vn 0.324399 0.945607 0.024340
vn 0.295381 0.935835 -0.192256
vn 0.295381 0.935835 -0.192256
vn 0.295381 0.935835 -0.192256
vn 0.269996 0.948733 -0.164340
vn 0.269996 0.948733 -0.164340
vn 0.269996 0.948733 -0.164340
vn 0.308592 0.947397 -0.084911
vn 0.308592 0.947397 -0.084911
vn 0.308592 0.947397 -0.084911
vn 0.305292 0.948991 -0.078817
vn 0.305292 0.948991 -0.078817
vn 0.305292 0.948991 -0.078817
vn 0.357407 0.930915 -0.075222
vn 0.357407 0.930915 -0.075222
vn 0.357407 0.930915 -0.075222
vn 0.364336 0.931255 0.004818
vn 0.364336 0.931255 0.004818
vn 0.364336 0.931255 0.004818
s off
g polySurface1
usemtl butterfly1_colormap1_0003_body_hot_pinkSG
f 1/1/1 12/2/2 11/3/3
f 1/1/4 9/4/5 12/2/6
f 13/5/7 3/6/8 14/7/9
f 14/7/10 3/6/11 6/8/12
f 5/9/13 13/5/14 8/10/15
f 8/10/16 13/5/17 14/7/18
f 14/7/19 6/8/20 2/11/21
f 8/10/22 14/7/23 2/11/24
f 12/2/25 9/4/26 13/5/27
f 13/5/28 9/4/29 3/6/30
f 11/3/31 12/2/32 5/9/33
f 5/9/34 12/2/35 13/5/36
f 1/12/37 11/13/38 10/14/39
f 1/12/40 10/14/41 9/15/42
f 4/16/43 7/17/44 3/18/45
f 3/18/46 7/17/47 6/19/48
f 5/20/49 8/21/50 4/16/51
f 4/16/52 8/21/53 7/17/54
f 7/17/55 2/22/56 6/19/57
f 8/21/58 2/22/59 7/17/60
f 10/14/61 4/16/62 9/15/63
f 9/15/64 4/16/65 3/18/66
f 11/13/67 5/20/68 10/14/69
f 10/14/70 5/20/71 4/16/72
f 35/23/73 29/24/74 31/25/75
f 23/26/76 30/27/77 24/28/78
f 16/29/79 18/30/80 17/31/81
f 18/30/82 16/29/83 19/32/84
usemtl butterfly1_colormap1_0003_body_purpleSG
f 19/32/85 15/33/86 21/34/87
usemtl butterfly1_colormap1_0003_body_pinkSG
f 21/34/88 26/35/89 22/36/90
usemtl butterfly1_colormap1_0003_body_purpleSG
f 26/35/91 21/34/92 15/33/93
f 27/37/94 26/35/95 25/38/96
usemtl butterfly1_colormap1_0003_body_pinkSG
f 26/35/97 27/37/98 22/36/99
usemtl butterfly1_colormap1_0003_body_hot_pinkSG
f 22/36/100 27/37/101 33/39/102
usemtl butterfly1_colormap1_0003_body_purpleSG
f 28/40/103 25/38/104 24/28/105
usemtl butterfly1_colormap1_0003_body_pinkSG
f 25/38/106 28/40/107 27/37/108
usemtl butterfly1_colormap1_0003_body_hot_pinkSG
f 27/37/109 28/40/110 32/41/111
f 34/42/112 28/40/113 29/24/114
f 29/24/115 28/40/116 24/28/117
f 31/25/118 29/24/119 30/27/120
f 30/27/121 29/24/122 24/28/123
usemtl butterfly1_colormap1_0003_body_pinkSG
f 15/33/124 19/32/125 16/29/126
usemtl butterfly1_colormap1_0003_body_hot_pinkSG
f 19/32/127 21/34/128 20/43/129
f 56/44/130 52/45/131 50/46/132
f 44/47/133 45/48/134 51/49/135
f 37/50/136 38/51/137 39/52/138
f 39/52/139 40/53/140 37/50/141
usemtl butterfly1_colormap1_0003_body_purpleSG
f 40/53/142 42/54/143 36/55/144
usemtl butterfly1_colormap1_0003_body_pinkSG
f 42/54/145 43/56/146 47/57/147
usemtl butterfly1_colormap1_0003_body_purpleSG
f 47/57/148 36/55/149 42/54/150
f 48/58/151 46/59/152 47/57/153
usemtl butterfly1_colormap1_0003_body_pinkSG
f 47/57/154 43/56/155 48/58/156
usemtl butterfly1_colormap1_0003_body_hot_pinkSG
f 43/56/157 54/60/158 48/58/159
usemtl butterfly1_colormap1_0003_body_purpleSG
f 49/61/160 45/48/161 46/59/162
usemtl butterfly1_colormap1_0003_body_pinkSG
f 46/59/163 48/58/164 49/61/165
usemtl butterfly1_colormap1_0003_body_hot_pinkSG
f 48/58/166 53/62/167 49/61/168
f 55/63/169 50/46/170 49/61/171
f 50/46/172 45/48/173 49/61/174
f 52/45/175 51/49/176 50/46/177
f 51/49/178 45/48/179 50/46/180
usemtl butterfly1_colormap1_0003_body_pinkSG
f 36/55/181 37/50/182 40/53/183
usemtl butterfly1_colormap1_0003_body_hot_pinkSG
f 40/53/184 41/64/185 42/54/186
