<?xml version="1.0" encoding="utf-8"?>
<!-- Generator: Adobe Illustrator 15.0.0, SVG Export Plug-In . SVG Version: 6.00 Build 0)  -->
<!DOCTYPE svg PUBLIC "-//W3C//DTD SVG 1.1//EN" "http://www.w3.org/Graphics/SVG/1.1/DTD/svg11.dtd">
<svg version="1.1" id="Layer_1" xmlns="http://www.w3.org/2000/svg" xmlns:xlink="http://www.w3.org/1999/xlink" x="0px" y="0px"
	 width="629px" height="54px" viewBox="0 0 629 54" enable-background="new 0 0 629 54" xml:space="preserve">
<path fill="#050508" d="M0,0.675h7.5c5.665,0,10.332,4.451,10.332,10.17c0,5.72-4.694,10.171-10.332,10.171H0V0.675z M5.288,16.537
	h1.187c3.156,0,5.854-1.727,5.854-5.692c0-3.642-2.401-5.692-5.8-5.692H5.288V16.537z"/>
<path fill="#050508" d="M31.81,17.481l-1.403,3.534h-5.611l7.823-20.341h5.773l7.662,20.341h-5.638l-1.322-3.534H31.81z
	 M35.506,6.96h-0.054l-2.186,6.475h4.397L35.506,6.96z"/>
<path fill="#050508" d="M54.043,0.675h5.288l9.685,12.437h0.054V0.675h5.288v20.341H69.07L59.385,8.552h-0.054v12.464h-5.288V0.675z
	"/>
<path fill="#050508" d="M104.441,9.658c-0.054,2.968-0.27,5.503-2.077,8.039c-1.997,2.779-4.991,3.993-8.39,3.993
	c-6.394,0-10.845-4.344-10.845-10.737C83.129,4.344,87.607,0,94.163,0c4.181,0,7.418,1.889,9.172,5.692l-5.018,2.104
	C97.589,5.854,96.051,4.56,93.92,4.56c-3.48,0-5.288,3.318-5.288,6.421c0,3.156,1.889,6.366,5.369,6.366
	c2.293,0,4.047-1.187,4.263-3.534h-4.316V9.658H104.441z"/>
<path fill="#050508" d="M118.5,5.152v3.399h5.962v4.479H118.5v3.507h6.286v4.479h-11.573V0.675h11.573v4.478L118.5,5.152
	L118.5,5.152z"/>
<path fill="#050508" d="M151.308,21.016h-6.583l-4.991-7.823h-0.054v7.823h-5.288V0.675h7.904c4.02,0,7.068,1.915,7.068,6.259
	c0,2.806-1.565,5.233-4.451,5.746L151.308,21.016z M139.68,9.793h0.513c1.727,0,3.669-0.324,3.669-2.536s-1.942-2.536-3.669-2.536
	h-0.513V9.793z"/>
<path fill="#050508" d="M176.914,0.675h5.207l4.127,10.872l4.371-10.872h5.26l3.076,20.341h-5.288l-1.484-11.708h-0.054
	l-4.883,11.708h-2.104l-4.667-11.708h-0.054l-1.699,11.708h-5.261L176.914,0.675z"/>
<path fill="#050508" d="M229.012,10.468c0,6.582-4.721,11.223-11.25,11.223c-6.529,0-11.25-4.641-11.25-11.223
	c0-6.151,5.396-10.468,11.25-10.468c1.775,0,3.507,0.397,5.061,1.121c1.785,0.833,3.332,2.098,4.433,3.69
	C228.357,6.404,229.012,8.324,229.012,10.468z M212.016,10.494c0,3.508,2.59,6.07,5.747,6.07c3.156,0,5.746-2.562,5.746-6.07
	c0-0.831-0.228-1.641-0.63-2.369c-0.438-0.794-1.083-1.49-1.868-2.012c-0.926-0.616-2.045-0.987-3.248-0.987
	c-1.17,0-2.263,0.352-3.174,0.937C213.042,7.058,212.016,8.728,212.016,10.494z"/>
<path fill="#050508" d="M255.453,0.675v11.438c0,2.616-0.107,5.206-2.131,7.176c-1.7,1.673-4.371,2.266-6.745,2.266
	s-5.044-0.593-6.744-2.266c-2.023-1.97-2.131-4.56-2.131-7.176V0.675h5.288v10.71c0,2.644,0.189,5.53,3.588,5.53
	s3.588-2.887,3.588-5.53V0.675H255.453z"/>
<path fill="#050508" d="M276.311,5.908c-0.971-0.81-2.212-1.349-3.507-1.349c-0.971,0-2.266,0.566-2.266,1.699
	c0,1.188,1.43,1.646,2.347,1.942l1.349,0.404c2.833,0.837,5.018,2.267,5.018,5.558c0,2.023-0.486,4.101-2.104,5.477
	c-1.591,1.349-3.723,1.915-5.773,1.915c-2.563,0-5.072-0.863-7.149-2.319l2.267-4.263c1.322,1.16,2.886,2.104,4.694,2.104
	c1.241,0,2.563-0.621,2.563-2.051c0-1.483-2.077-1.996-3.21-2.319c-3.318-0.944-5.503-1.808-5.503-5.747
	c0-4.127,2.94-6.825,7.014-6.825c2.05,0,4.559,0.647,6.367,1.673L276.311,5.908z"/>
<path fill="#050508" d="M293.391,5.152v3.399h5.962v4.479h-5.962v3.507h6.286v4.479h-11.573V0.675h11.573v4.478L293.391,5.152
	L293.391,5.152z"/>
<path fill="#050508" d="M328.831,20.124c-0.956,0.649-2.128,1.146-3.287,1.146c-1.656,0-3.083-0.994-3.083-2.752
	c0-1.439,0.854-2.141,2.064-2.676l0.229-0.102l-0.203-0.28c-0.307-0.421-0.688-0.88-0.688-1.67c0-1.656,1.438-2.637,2.98-2.637
	c1.529,0,3.007,0.968,3.007,2.611c0,1.198-0.79,1.81-1.783,2.307l1.211,1.273c0.471-0.42,0.903-0.854,1.262-1.363l1.414,1.351
	l-1.211,1.3l-0.114,0.115l2.153,2.268h-3.121L328.831,20.124z M325.951,17.002c-0.407,0.255-0.904,0.611-0.904,1.146
	c0,0.574,0.574,0.88,1.084,0.88c0.471,0,0.941-0.166,1.337-0.396L325.951,17.002z M327.875,13.74c0-0.484-0.33-0.892-0.84-0.892
	c-0.446,0-0.803,0.318-0.803,0.79c0,0.472,0.444,0.93,0.752,1.274C327.417,14.671,327.875,14.263,327.875,13.74z"/>
<path fill="#050508" d="M351.929,0.675h7.5c5.664,0,10.332,4.451,10.332,10.17c0,5.72-4.693,10.171-10.332,10.171h-7.5V0.675z
	 M357.216,16.537h1.188c3.155,0,5.854-1.727,5.854-5.692c0-3.642-2.399-5.692-5.801-5.692h-1.24L357.216,16.537L357.216,16.537z"/>
<path fill="#050508" d="M383.739,17.481l-1.403,3.534h-5.611l7.824-20.341h5.773l7.661,20.341h-5.639l-1.321-3.534H383.739z
	 M387.435,6.96h-0.055l-2.186,6.475h4.397L387.435,6.96z"/>
<path fill="#050508" d="M405.972,0.675h5.287l9.687,12.437h0.053V0.675h5.288v20.341h-5.288l-9.684-12.464h-0.056v12.464h-5.287
	V0.675L405.972,0.675z"/>
<path fill="#050508" d="M441.371,21.016h-5.288V0.675h5.288V21.016z"/>
<path fill="#050508" d="M456.453,5.152v3.399h5.962v4.479h-5.962v3.507h6.285v4.479h-11.572V0.675h11.572v4.478L456.453,5.152
	L456.453,5.152z"/>
<path fill="#050508" d="M477.632,16.537h6.34v4.479h-11.627V0.675h5.287V16.537L477.632,16.537z"/>
<path fill="#050508" d="M497.329,5.152v3.399h5.962v4.479h-5.962v3.507h6.286v4.479h-11.574V0.675h11.574v4.478L497.329,5.152
	L497.329,5.152z"/>
<path fill="#050508" d="M534.104,16.537h6.34v4.479h-11.627V0.675h5.287V16.537z"/>
<path fill="#050508" d="M566.156,0.675v11.438c0,2.616-0.109,5.206-2.132,7.176c-1.7,1.673-4.37,2.266-6.745,2.266
	c-2.373,0-5.045-0.593-6.744-2.266c-2.023-1.97-2.131-4.56-2.131-7.176V0.675h5.287v10.71c0,2.644,0.188,5.53,3.588,5.53
	s3.588-2.887,3.588-5.53V0.675H566.156z"/>
<path fill="#050508" d="M575.843,0.675h8.095c4.37,0,7.393,2.023,7.393,6.69c0,4.802-2.59,6.906-7.203,6.906h-2.995v6.744h-5.288
	L575.843,0.675L575.843,0.675z M581.131,10.009h0.891c1.916,0,3.805,0,3.805-2.481c0-2.563-1.754-2.59-3.805-2.59h-0.891V10.009z"/>
<path fill="#050508" d="M600.019,0.675h8.094c4.37,0,7.392,2.023,7.392,6.69c0,4.802-2.59,6.906-7.203,6.906h-2.994v6.744h-5.287
	L600.019,0.675L600.019,0.675z M605.306,10.009h0.892c1.915,0,3.803,0,3.803-2.481c0-2.563-1.753-2.59-3.803-2.59h-0.892V10.009z"/>
<path fill="#050508" d="M629.481,21.016h-5.288V0.675h5.288V21.016z"/>
<path fill="#050508" d="M279.073,44.218h3.822c2.064,0,3.491,0.955,3.491,3.159c0,2.27-1.224,3.262-3.402,3.262h-1.414v3.187h-2.497
	L279.073,44.218L279.073,44.218z M281.57,48.626h0.421c0.904,0,1.796,0,1.796-1.172c0-1.211-0.828-1.224-1.796-1.224h-0.421V48.626z
	"/>
<path fill="#050508" d="M298.675,53.824h-3.108l-2.357-3.695h-0.025v3.695h-2.497v-9.606h3.733c1.898,0,3.338,0.904,3.338,2.956
	c0,1.324-0.739,2.473-2.103,2.715L298.675,53.824z M293.184,48.523h0.242c0.815,0,1.732-0.152,1.732-1.197s-0.917-1.197-1.732-1.197
	h-0.242V48.523z"/>
<path fill="#050508" d="M305.04,46.332v1.605h2.816v2.114h-2.816v1.656h2.969v2.115h-5.466v-9.606h5.466v2.114L305.04,46.332
	L305.04,46.332z"/>
<path fill="#050508" d="M318.016,46.689c-0.458-0.383-1.044-0.639-1.655-0.639c-0.458,0-1.07,0.268-1.07,0.803
	c0,0.562,0.676,0.777,1.108,0.918l0.638,0.19c1.338,0.396,2.37,1.07,2.37,2.625c0,0.956-0.229,1.937-0.994,2.587
	c-0.752,0.637-1.759,0.904-2.728,0.904c-1.211,0-2.396-0.408-3.377-1.096l1.07-2.015c0.625,0.55,1.363,0.994,2.217,0.994
	c0.587,0,1.211-0.293,1.211-0.968c0-0.701-0.98-0.943-1.517-1.096c-1.566-0.446-2.599-0.854-2.599-2.715
	c0-1.949,1.389-3.224,3.312-3.224c0.969,0,2.153,0.306,3.007,0.79L318.016,46.689z"/>
<path fill="#050508" d="M326.279,46.332v1.605h2.815v2.114h-2.815v1.656h2.969v2.115h-5.466v-9.606h5.466v2.114L326.279,46.332
	L326.279,46.332z"/>
<path fill="#050508" d="M333.981,44.218h2.496l4.574,5.873h0.025v-5.873h2.497v9.606h-2.497l-4.574-5.887h-0.025v5.887h-2.496
	V44.218z"/>
<path fill="#050508" d="M352.221,53.824h-2.497v-7.492h-2.063v-2.114h6.626v2.114h-2.064L352.221,53.824L352.221,53.824z"/>
</svg>
