<?xml version="1.0" encoding="utf-8"?>
<!-- Generator: Adobe Illustrator 15.0.0, SVG Export Plug-In . SVG Version: 6.00 Build 0)  -->
<!DOCTYPE svg PUBLIC "-//W3C//DTD SVG 1.1//EN" "http://www.w3.org/Graphics/SVG/1.1/DTD/svg11.dtd">
<svg version="1.1" id="Layer_1" xmlns="http://www.w3.org/2000/svg" xmlns:xlink="http://www.w3.org/1999/xlink" x="0px" y="0px"
	 width="701px" height="422.07px" viewBox="0 0 701 422.07" enable-background="new 0 0 701 422.07" xml:space="preserve">
<path fill="#050508" d="M312.398,2.791c-0.458-0.383-1.047-0.638-1.656-0.638c-0.458,0-1.07,0.268-1.07,0.803
	c0,0.561,0.676,0.777,1.108,0.918l0.638,0.19c1.338,0.396,2.37,1.07,2.37,2.625c0,0.956-0.229,1.937-0.994,2.587
	c-0.752,0.637-1.759,0.904-2.727,0.904c-1.211,0-2.396-0.408-3.377-1.096l1.067-2.014c0.625,0.549,1.363,0.994,2.218,0.994
	c0.589,0,1.21-0.293,1.21-0.968c0-0.701-0.979-0.943-1.517-1.096c-1.563-0.446-2.599-0.854-2.599-2.714
	c0-1.95,1.389-3.224,3.312-3.224c0.969,0,2.153,0.306,3.007,0.79L312.398,2.791z"/>
<path fill="#050508" d="M321.986,9.926h-2.497V2.434h-2.064V0.319h6.626v2.114h-2.062L321.986,9.926L321.986,9.926z"/>
<path fill="#050508" d="M329.83,8.257l-0.662,1.669h-2.65l3.694-9.606h2.729l3.616,9.606h-2.663l-0.621-1.669H329.83z
	 M331.575,3.288h-0.025l-1.031,3.058h2.076L331.575,3.288z"/>
<path fill="#050508" d="M348.516,9.926h-3.105l-2.36-3.696h-0.022v3.695h-2.497V0.319h3.73c1.898,0,3.338,0.904,3.338,2.956
	c0,1.324-0.736,2.472-2.103,2.714L348.516,9.926z M343.024,4.626h0.239c0.815,0,1.732-0.153,1.732-1.198
	c0-1.045-0.917-1.197-1.732-1.197h-0.239V4.626z"/>
<path fill="#050508" d="M360.372,9.926h-3.108l-2.354-3.695h-0.025v3.695h-2.497V0.319h3.733c1.896,0,3.338,0.904,3.338,2.956
	c0,1.324-0.739,2.472-2.103,2.714L360.372,9.926z M354.881,4.626h0.242c0.815,0,1.732-0.153,1.732-1.198
	c0-1.045-0.917-1.197-1.732-1.197h-0.242V4.626z"/>
<path fill="#050508" d="M366.737,9.926h-2.497V0.319h2.497V9.926z"/>
<path fill="#050508" d="M371.558,0.319h2.497l4.574,5.873h0.025V0.319h2.497v9.606h-2.497l-4.574-5.887h-0.025v5.887h-2.497V0.319z"
	/>
<path fill="#050508" d="M395.557,4.562c-0.022,1.401-0.127,2.6-0.979,3.797c-0.943,1.312-2.357,1.886-3.963,1.886
	c-3.021,0-5.122-2.051-5.122-5.07c0-3.122,2.115-5.174,5.211-5.174c1.976,0,3.504,0.893,4.332,2.688l-2.369,0.994
	c-0.345-0.917-1.07-1.529-2.077-1.529c-1.644,0-2.497,1.567-2.497,3.033c0,1.49,0.895,3.007,2.535,3.007
	c1.083,0,1.911-0.561,2.014-1.67h-2.039V4.562H395.557z"/>
<path fill="#050508" d="M83.292,34.431v13.731c0,4.289-2.239,7.149-6.744,7.149c-2.266,0-4.02-1.134-5.234-2.995l3.048-3.21
	c0.594,0.809,1.43,1.727,2.131,1.727c1.565,0,1.511-1.861,1.511-2.995V34.431H83.292z"/>
<path fill="#050508" d="M98.564,51.237l-1.403,3.534H91.55l7.823-20.341h5.773l7.662,20.341h-5.638l-1.322-3.534H98.564z
	 M102.26,40.716h-0.054l-2.186,6.475h4.397L102.26,40.716z"/>
<path fill="#050508" d="M135.743,41.256c-1.079-1.457-2.833-2.239-4.64-2.239c-3.237,0-5.423,2.482-5.423,5.639
	c0,3.21,2.212,5.53,5.504,5.53c1.727,0,3.453-0.837,4.559-2.158v6.34c-1.753,0.539-3.021,0.944-4.667,0.944
	c-2.833,0-5.53-1.08-7.634-2.995c-2.239-2.023-3.264-4.667-3.264-7.688c0-2.778,1.052-5.449,2.994-7.445
	c1.997-2.051,4.883-3.292,7.743-3.292c1.7,0,3.264,0.378,4.829,1.025L135.743,41.256L135.743,41.256z"/>
<path fill="#050508" d="M157.49,34.431h6.555l-8.093,9.631l8.821,10.71h-6.852l-6.826-8.821h-0.054v8.821h-5.288V34.431h5.288v8.39
	h0.054L157.49,34.431z"/>
<path fill="#050508" d="M195.857,47.568h0.054l4.262-13.138h4.208l3.993,13.138h0.054l3.831-13.138h5.503l-6.501,20.341h-5.396
	l-3.561-11.789h-0.054l-3.993,11.789h-5.368l-6.07-20.341h5.503L195.857,47.568z"/>
<path fill="#050508" d="M238.756,42.281V34.43h5.288v20.341h-5.288v-8.336h-7.635v8.336h-5.288v-20.34h5.288v7.851L238.756,42.281
	L238.756,42.281z"/>
<path fill="#050508" d="M259.533,54.771h-5.288v-20.34h5.288V54.771z"/>
<path fill="#050508" d="M277.825,54.771h-5.288V38.909h-4.37V34.43h14.028v4.479h-4.371L277.825,54.771L277.825,54.771z"/>
<path fill="#050508" d="M296.146,38.909v3.398h5.962v4.479h-5.962v3.507h6.286v4.479h-11.573V34.431h11.573v4.479L296.146,38.909
	L296.146,38.909z"/>
<path fill="#050508" d="M329.953,53.88c-0.956,0.649-2.127,1.146-3.287,1.146c-1.656,0-3.083-0.994-3.083-2.752
	c0-1.439,0.854-2.141,2.064-2.676l0.229-0.102l-0.204-0.28c-0.306-0.421-0.688-0.88-0.688-1.67c0-1.656,1.438-2.637,2.979-2.637
	c1.529,0,3.007,0.968,3.007,2.611c0,1.198-0.79,1.81-1.782,2.307l1.211,1.274c0.471-0.421,0.901-0.854,1.261-1.364l1.414,1.351
	l-1.21,1.3l-0.115,0.115l2.153,2.268h-3.121L329.953,53.88z M327.074,50.758c-0.408,0.255-0.904,0.611-0.904,1.146
	c0,0.574,0.573,0.88,1.083,0.88c0.471,0,0.942-0.166,1.337-0.396L327.074,50.758z M328.998,47.496c0-0.484-0.331-0.892-0.841-0.892
	c-0.446,0-0.806,0.318-0.806,0.79s0.446,0.93,0.755,1.274C328.539,48.427,328.998,48.019,328.998,47.496z"/>
<path fill="#050508" d="M351.206,34.431h5.288l9.685,12.437h0.058V34.431h5.286v20.341h-5.286l-9.688-12.464h-0.054v12.464h-5.288
	V34.431L351.206,34.431z"/>
<path fill="#050508" d="M403.195,44.224c0,6.582-4.724,11.223-11.25,11.223c-6.528,0-11.25-4.641-11.25-11.223
	c0-6.151,5.396-10.468,11.25-10.468c0.363,0,0.729,0.017,1.091,0.05c1.638,0.15,3.214,0.635,4.615,1.397
	c1.062,0.579,2.027,1.318,2.844,2.193c0.62,0.666,1.153,1.41,1.579,2.223C402.787,40.98,403.195,42.533,403.195,44.224z
	 M386.199,44.25c0,3.507,2.59,6.07,5.746,6.07c3.153,0,5.746-2.563,5.746-6.07c0-0.603-0.119-1.193-0.34-1.75
	c-0.219-0.557-0.535-1.079-0.934-1.545c-0.456-0.536-1.018-0.996-1.654-1.346c-0.75-0.412-1.604-0.67-2.51-0.719
	c-0.103-0.005-0.206-0.008-0.311-0.008C388.789,38.882,386.199,41.444,386.199,44.25z"/>
<path fill="#050508" d="M429.312,54.771h-6.582l-4.99-7.823h-0.058v7.823h-5.284v-20.34h7.901c4.021,0,7.068,1.915,7.068,6.259
	c0,2.806-1.564,5.233-4.451,5.746L429.312,54.771z M417.686,43.549h0.517c1.727,0,3.668-0.323,3.668-2.536
	c0-2.212-1.941-2.535-3.668-2.535h-0.517V43.549z"/>
<path fill="#050508" d="M442.67,51.237l-1.402,3.534h-5.608l7.824-20.341h5.771l7.661,20.341h-5.638l-1.321-3.534H442.67z
	 M446.366,40.716h-0.054l-2.188,6.475h4.397L446.366,40.716z"/>
<path fill="#050508" d="M478.23,42.281V34.43h5.284v20.341h-5.284v-8.336h-7.638v8.336h-5.287v-20.34h5.287v7.851L478.23,42.281
	L478.23,42.281z"/>
<path fill="#050508" d="M519.565,34.431v13.731c0,4.289-2.239,7.149-6.744,7.149c-2.27,0-4.021-1.134-5.233-2.995l3.049-3.21
	c0.596,0.809,1.433,1.727,2.131,1.727c1.564,0,1.513-1.861,1.513-2.995V34.431H519.565z"/>
<path fill="#050508" d="M551.132,44.224c0,6.582-4.722,11.223-11.249,11.223c-6.529,0-11.25-4.641-11.25-11.223
	c0-6.151,5.396-10.468,11.25-10.468c1.166,0,2.314,0.171,3.405,0.494c1.216,0.36,2.361,0.909,3.381,1.619
	c1.253,0.873,2.316,1.989,3.091,3.298C550.628,40.634,551.132,42.344,551.132,44.224z M534.137,44.25c0,3.507,2.59,6.07,5.746,6.07
	s5.746-2.563,5.746-6.07c0-0.541-0.096-1.073-0.273-1.58c-0.252-0.716-0.668-1.381-1.205-1.948
	c-0.646-0.678-1.465-1.214-2.391-1.529c-0.589-0.201-1.221-0.311-1.877-0.311C536.727,38.882,534.137,41.444,534.137,44.25z"/>
<path fill="#050508" d="M560.335,34.431h5.288l9.685,12.437h0.057V34.431h5.287v20.341h-5.287l-9.688-12.464h-0.053v12.464h-5.288
	V34.431L560.335,34.431z"/>
<path fill="#050508" d="M596.139,38.909v3.398h5.961v4.479h-5.961v3.507h6.285v4.479h-11.573V34.431h11.573v4.479L596.139,38.909
	L596.139,38.909z"/>
<path fill="#050508" d="M623.604,39.664c-0.971-0.81-2.211-1.349-3.506-1.349c-0.972,0-2.267,0.566-2.267,1.699
	c0,1.188,1.43,1.646,2.347,1.942l1.353,0.405c2.832,0.836,5.018,2.266,5.018,5.557c0,2.023-0.486,4.101-2.104,5.477
	c-1.594,1.349-3.726,1.916-5.772,1.916c-2.562,0-5.072-0.863-7.148-2.32l2.269-4.263c1.321,1.16,2.886,2.104,4.692,2.104
	c1.238,0,2.562-0.621,2.562-2.051c0-1.483-2.076-1.996-3.21-2.32c-3.318-0.943-5.503-1.807-5.503-5.746
	c0-4.127,2.938-6.825,7.014-6.825c2.053,0,4.562,0.647,6.367,1.673L623.604,39.664z"/>
<path fill="#050508" d="M88.886,111.926c0.045,2.288-0.202,4.172-1.75,5.967c-1.547,1.794-3.903,2.826-6.258,2.826
	c-4.755,0-8.703-3.948-8.703-8.703c0-4.846,3.948-8.793,8.815-8.793c2.961,0,5.361,1.323,7.156,3.656l-1.369,1.278
	c-1.413-1.996-3.319-3.185-5.809-3.185c-3.858,0-6.909,3.252-6.909,7.065c0,1.794,0.718,3.499,1.974,4.777
	c1.234,1.233,3.028,2.153,4.8,2.153c2.938,0,6.034-2.153,6.034-5.294h-5.024v-1.747H88.886z"/>
<path fill="#050508" d="M94.251,103.515h8.771v1.749h-6.886v5.024h6.684v1.75h-6.684v6.639h6.886v1.75h-8.771V103.515z"/>
<path fill="#050508" d="M124.647,111.926c0.045,2.288-0.202,4.172-1.75,5.967c-1.547,1.794-3.903,2.826-6.258,2.826
	c-4.755,0-8.703-3.948-8.703-8.703c0-4.846,3.948-8.793,8.815-8.793c2.961,0,5.361,1.323,7.156,3.656l-1.369,1.278
	c-1.413-1.996-3.319-3.185-5.809-3.185c-3.858,0-6.909,3.252-6.909,7.065c0,1.794,0.718,3.499,1.974,4.777
	c1.234,1.233,3.028,2.153,4.8,2.153c2.938,0,6.034-2.153,6.034-5.294h-5.024v-1.747H124.647z"/>
<path fill="#050508" d="M130.012,103.515h8.771v1.749h-6.886v5.024h6.684v1.75h-6.684v6.639h6.886v1.75h-8.771V103.515z"/>
<path fill="#050508" d="M148.094,103.828l-2.557,5.72l-1.211-0.471l2.108-5.854L148.094,103.828z"/>
<path fill="#050508" d="M165.66,102.55l6.146,14.198l6.168-14.198l3.432,17.877h-1.929l-2.176-11.439h-0.045l-5.451,12.135
	l-5.428-12.135h-0.045l-2.176,11.439h-1.929L165.66,102.55z"/>
<path fill="#050508" d="M188.095,113.586c0,1.256-0.045,2.691,0.74,3.768c0.74,1.032,2.176,1.615,3.41,1.615
	c1.211,0,2.534-0.561,3.319-1.503c0.897-1.076,0.83-2.557,0.83-3.88v-10.071h1.884v10.587c0,1.839-0.135,3.297-1.48,4.688
	c-1.167,1.257-2.849,1.93-4.553,1.93c-1.593,0-3.23-0.606-4.374-1.728c-1.48-1.413-1.66-2.961-1.66-4.89v-10.587h1.884V113.586
	L188.095,113.586z"/>
<path fill="#050508" d="M204.428,102.797l13.189,13.816v-13.098h1.884v17.675l-13.189-13.795v13.032h-1.884V102.797z"/>
<path fill="#050508" d="M228.253,115.627l-2.041,4.8h-2.063l7.806-17.72l7.604,17.72h-2.086l-1.997-4.8H228.253z M231.91,107.104
	l-2.894,6.773h5.72L231.91,107.104z"/>
<path fill="#050508" d="M245.977,120.427h-1.884v-16.912h2.445c3.208,0,6.191,0.852,6.191,4.665c0,2.602-1.637,4.441-4.239,4.666
	l5.383,7.581h-2.311l-5.114-7.425h-0.471V120.427z M245.977,111.343h0.583c2.131,0,4.284-0.404,4.284-3.028
	c0-2.781-2.041-3.051-4.307-3.051h-0.561L245.977,111.343L245.977,111.343z"/>
<path fill="#050508" d="M260.874,120.427h-1.884v-16.912h1.884V120.427z"/>
<path fill="#050508" d="M275.744,112.017h1.584c1.26,0,2.287,0.167,3.279,1.015c0.959,0.826,1.394,1.952,1.394,3.201
	c0,1.228-0.446,2.31-1.372,3.135c-1.004,0.893-2.008,1.06-3.324,1.06h-1.562L275.744,112.017L275.744,112.017z M277.361,119.557
	c1.026,0,1.885-0.145,2.655-0.87c0.692-0.646,1.049-1.528,1.049-2.465c0-0.959-0.368-1.885-1.093-2.521
	c-0.77-0.681-1.617-0.814-2.61-0.814h-0.68v6.67H277.361z"/>
<path fill="#050508" d="M285.577,120.427h-0.937v-8.41h1.216c1.595,0,3.079,0.424,3.079,2.32c0,1.294-0.814,2.208-2.108,2.319
	l2.677,3.771h-1.149l-2.543-3.692h-0.234L285.577,120.427L285.577,120.427z M285.577,115.909h0.29c1.06,0,2.13-0.2,2.13-1.506
	c0-1.383-1.015-1.517-2.142-1.517h-0.279L285.577,115.909L285.577,115.909z"/>
<path fill="#050508" d="M292.935,117.025c0,0.625-0.022,1.339,0.368,1.874c0.368,0.514,1.082,0.804,1.695,0.804
	c0.603,0,1.261-0.279,1.651-0.748c0.446-0.535,0.413-1.271,0.413-1.93v-5.008h0.937v5.265c0,0.915-0.067,1.64-0.736,2.331
	c-0.58,0.625-1.417,0.959-2.265,0.959c-0.792,0-1.606-0.301-2.175-0.858c-0.736-0.703-0.826-1.473-0.826-2.432v-5.265h0.937
	L292.935,117.025L292.935,117.025z"/>
<path fill="#050508" d="M302.088,111.537l3.056,7.061l3.067-7.061l1.707,8.89h-0.959l-1.082-5.688h-0.021l-2.71,6.034l-2.699-6.034
	h-0.022l-1.082,5.688h-0.959L302.088,111.537z"/>
<path fill="#050508" d="M316.137,113.657c-0.335-0.58-0.733-0.915-1.45-0.915c-0.745,0-1.394,0.536-1.394,1.306
	c0,0.725,0.747,1.06,1.316,1.315l0.558,0.246c1.093,0.479,2.019,1.026,2.019,2.364c0,1.473-1.182,2.599-2.644,2.599
	c-1.35,0-2.354-0.869-2.621-2.175l0.915-0.256c0.123,0.858,0.781,1.562,1.684,1.562c0.904,0,1.729-0.692,1.729-1.64
	c0-0.982-0.771-1.316-1.55-1.674l-0.516-0.223c-0.979-0.446-1.826-0.948-1.826-2.153c0-1.305,1.104-2.142,2.354-2.142
	c0.938,0,1.729,0.48,2.175,1.306L316.137,113.657z"/>
<path fill="#050508" d="M332.235,120.427h-1.887v-16.912h2.445c3.208,0,6.191,0.852,6.191,4.665c0,2.602-1.64,4.441-4.239,4.666
	l5.383,7.581h-2.311l-5.114-7.425h-0.471L332.235,120.427L332.235,120.427z M332.235,111.343h0.583c2.131,0,4.281-0.404,4.281-3.028
	c0-2.781-2.041-3.051-4.307-3.051h-0.561L332.235,111.343L332.235,111.343z"/>
<path fill="#050508" d="M361.98,111.993c0,4.867-3.993,8.726-8.815,8.726s-8.815-3.858-8.815-8.726c0-4.845,3.993-8.771,8.815-8.771
	c0.755,0,1.489,0.097,2.192,0.278c0.701,0.181,1.373,0.447,1.999,0.786c0.813,0.442,1.554,1.008,2.188,1.673
	c0.92,0.961,1.625,2.129,2.034,3.426C361.841,110.209,361.98,111.085,361.98,111.993z M346.234,111.971
	c0,3.812,3.096,6.998,6.931,6.998c3.836,0,6.931-3.186,6.931-6.998c0-0.793-0.13-1.558-0.371-2.271
	c-0.175-0.517-0.405-1.007-0.688-1.461c-0.562-0.901-1.321-1.665-2.222-2.227c-0.696-0.435-1.479-0.748-2.314-0.911
	c-0.431-0.083-0.876-0.127-1.333-0.127C349.285,104.973,346.234,108.135,346.234,111.971z"/>
<path fill="#050508" d="M367.234,103.515h2.778c3.072,0,5.652,1.121,5.652,4.575c0,1.368-0.516,2.535-1.66,3.298
	c2.021,0.493,3.208,2.31,3.208,4.329c0,3.364-2.715,4.71-6.057,4.71h-3.925L367.234,103.515L367.234,103.515z M369.118,110.961
	h0.718c2.131,0,3.948-0.246,3.948-2.871c0-2.557-1.615-2.826-3.926-2.826h-0.74V110.961z M369.118,118.677h1.884
	c2.108,0,4.329-0.516,4.329-3.095c0-2.625-2.512-3.006-4.575-3.006h-1.638V118.677z"/>
<path fill="#050508" d="M382.669,103.515h8.771v1.749h-6.889v5.024h6.688v1.75h-6.688v6.639h6.889v1.75h-8.771V103.515z"/>
<path fill="#050508" d="M399.225,120.427h-1.884v-16.912h2.444c3.208,0,6.188,0.852,6.188,4.665c0,2.602-1.638,4.441-4.236,4.666
	l5.383,7.581h-2.312l-5.111-7.425h-0.474L399.225,120.427L399.225,120.427z M399.225,111.343h0.583c2.134,0,4.284-0.404,4.284-3.028
	c0-2.781-2.041-3.051-4.307-3.051h-0.562L399.225,111.343L399.225,111.343z"/>
<path fill="#050508" d="M416.234,120.427h-1.887v-15.163h-4.082v-1.749h10.097v1.749h-4.128V120.427L416.234,120.427z"/>
<path fill="#050508" d="M441.763,111.993c0,4.867-3.989,8.726-8.812,8.726c-4.823,0-8.815-3.858-8.815-8.726
	c0-4.845,3.992-8.771,8.815-8.771C437.771,103.223,441.763,107.149,441.763,111.993z M426.017,111.971
	c0,3.812,3.099,6.998,6.935,6.998c3.835,0,6.931-3.186,6.931-6.998c0-3.836-3.051-6.998-6.931-6.998
	C429.067,104.973,426.017,108.135,426.017,111.971z"/>
<path fill="#050508" d="M458.503,120.427h-1.884v-16.912h2.781c1.458,0,2.961,0.044,4.191,0.896
	c1.256,0.875,1.906,2.355,1.906,3.858c0,1.368-0.562,2.759-1.615,3.634c-1.144,0.942-2.602,1.121-4.015,1.121H458.5L458.503,120.427
	L458.503,120.427z M458.503,111.276h1.256c2.086,0,3.858-0.628,3.858-3.051c0-2.759-2.221-2.961-4.419-2.961h-0.695V111.276z"/>
<path fill="#050508" d="M487.373,111.993c0,4.867-3.992,8.726-8.814,8.726c-4.82,0-8.812-3.858-8.812-8.726
	c0-1.995,0.677-3.834,1.811-5.307c0.977-1.269,2.287-2.266,3.799-2.858c0.995-0.391,2.077-0.605,3.205-0.605
	c1.748,0,3.39,0.517,4.769,1.405c1.235,0.797,2.264,1.893,2.974,3.185C486.982,109.055,487.373,110.479,487.373,111.993z
	 M471.627,111.971c0,3.812,3.096,6.998,6.932,6.998c3.835,0,6.934-3.186,6.934-6.998c0-1.37-0.391-2.655-1.066-3.74
	c-0.438-0.701-0.997-1.319-1.646-1.823c-0.861-0.667-1.888-1.134-3.011-1.331c-0.392-0.068-0.795-0.104-1.208-0.104
	C474.678,104.973,471.627,108.135,471.627,111.971z"/>
<path fill="#050508" d="M492.627,103.515h3.188c2.532,0,4.599,0.336,6.595,2.041c1.929,1.659,2.804,3.925,2.804,6.438
	c0,2.467-0.896,4.643-2.759,6.303c-2.021,1.794-4.037,2.131-6.688,2.131h-3.14V103.515L492.627,103.515z M495.879,118.677
	c2.063,0,3.791-0.291,5.339-1.749c1.394-1.301,2.108-3.073,2.108-4.957c0-1.93-0.74-3.791-2.198-5.069
	c-1.548-1.368-3.253-1.638-5.249-1.638h-1.368v13.413H495.879z"/>
<path fill="#050508" d="M512.458,120.427h-1.884v-16.912h1.884V120.427z"/>
<path fill="#050508" d="M535.361,111.993c0,4.867-3.992,8.726-8.814,8.726c-4.823,0-8.812-3.858-8.812-8.726
	c0-4.845,3.989-8.771,8.812-8.771C531.369,103.223,535.361,107.149,535.361,111.993z M519.615,111.971
	c0,3.812,3.096,6.998,6.932,6.998c3.835,0,6.932-3.186,6.932-6.998c0-3.836-3.052-6.998-6.932-6.998
	C522.666,104.973,519.615,108.135,519.615,111.971z"/>
<path fill="#050508" d="M550.296,120.427h-0.937v-8.41h1.383c0.726,0,1.473,0.022,2.086,0.446c0.625,0.435,0.948,1.171,0.948,1.918
	c0,0.681-0.278,1.372-0.806,1.808c-0.566,0.468-1.294,0.558-1.997,0.558h-0.681L550.296,120.427L550.296,120.427z M550.296,115.876
	h0.625c1.037,0,1.919-0.312,1.919-1.517c0-1.372-1.104-1.473-2.197-1.473h-0.347V115.876z"/>
<path fill="#050508" d="M556.305,112.017h4.361v0.87h-3.425v2.498h3.324v0.87h-3.324v3.302h3.425v0.87h-4.361V112.017z"/>
<path fill="#050508" d="M564.532,120.427h-0.938v-8.41h1.216c1.598,0,3.078,0.424,3.078,2.32c0,1.294-0.812,2.208-2.104,2.319
	l2.677,3.771h-1.147l-2.545-3.692h-0.231L564.532,120.427L564.532,120.427z M564.532,115.909h0.29c1.061,0,2.131-0.2,2.131-1.506
	c0-1.383-1.018-1.517-2.145-1.517h-0.276V115.909L564.532,115.909z"/>
<path fill="#050508" d="M577.39,113.858c-0.67-0.692-1.596-1.116-2.562-1.116c-1.874,0-3.395,1.629-3.395,3.48
	s1.528,3.48,3.413,3.48c0.948,0,1.874-0.446,2.544-1.116v1.16c-0.726,0.524-1.615,0.825-2.51,0.825
	c-2.376,0-4.384-1.929-4.384-4.316c0-2.409,1.975-4.384,4.384-4.384c0.938,0,1.763,0.269,2.51,0.826V113.858L577.39,113.858z"/>
<path fill="#050508" d="M581.223,117.025c0,0.625-0.021,1.339,0.368,1.874c0.367,0.514,1.082,0.804,1.695,0.804
	c0.602,0,1.26-0.279,1.647-0.748c0.446-0.535,0.413-1.271,0.413-1.93v-5.008h0.938v5.265c0,0.915-0.066,1.64-0.736,2.331
	c-0.58,0.625-1.416,0.959-2.264,0.959c-0.792,0-1.606-0.301-2.176-0.858c-0.735-0.703-0.825-1.473-0.825-2.432v-5.265h0.938
	L581.223,117.025L581.223,117.025z"/>
<path fill="#050508" d="M593.097,113.657c-0.334-0.58-0.733-0.915-1.446-0.915c-0.748,0-1.396,0.536-1.396,1.306
	c0,0.725,0.747,1.06,1.316,1.315l0.558,0.246c1.093,0.479,2.019,1.026,2.019,2.364c0,1.473-1.183,2.599-2.644,2.599
	c-1.35,0-2.354-0.869-2.621-2.175l0.914-0.256c0.123,0.858,0.781,1.562,1.687,1.562c0.902,0,1.729-0.692,1.729-1.64
	c0-0.982-0.771-1.316-1.551-1.674l-0.516-0.223c-0.979-0.446-1.83-0.948-1.83-2.153c0-1.305,1.104-2.142,2.354-2.142
	c0.938,0,1.729,0.48,2.176,1.306L593.097,113.657z"/>
<path fill="#050508" d="M600.666,113.657c-0.334-0.58-0.735-0.915-1.45-0.915c-0.747,0-1.394,0.536-1.394,1.306
	c0,0.725,0.747,1.06,1.313,1.315l0.561,0.246c1.093,0.479,2.019,1.026,2.019,2.364c0,1.473-1.183,2.599-2.644,2.599
	c-1.353,0-2.354-0.869-2.621-2.175l0.914-0.256c0.123,0.858,0.78,1.562,1.685,1.562c0.905,0,1.729-0.692,1.729-1.64
	c0-0.982-0.771-1.316-1.552-1.674l-0.515-0.223c-0.979-0.446-1.83-0.948-1.83-2.153c0-1.305,1.104-2.142,2.354-2.142
	c0.938,0,1.729,0.48,2.176,1.306L600.666,113.657z"/>
<path fill="#050508" d="M605.38,120.427h-0.937v-8.41h0.937V120.427z"/>
<path fill="#050508" d="M616.768,116.233c0,2.421-1.982,4.339-4.384,4.339c-2.396,0-4.384-1.918-4.384-4.339
	c0-2.409,1.985-4.361,4.384-4.361c0.802,0,1.557,0.217,2.204,0.597c0.312,0.182,0.6,0.401,0.857,0.651
	c0.477,0.463,0.848,1.033,1.072,1.67C616.68,115.241,616.768,115.727,616.768,116.233z M608.938,116.222
	c0,1.896,1.539,3.48,3.446,3.48s3.446-1.584,3.446-3.48c0-0.473-0.094-0.926-0.264-1.339s-0.415-0.787-0.724-1.102
	c-0.359-0.373-0.806-0.663-1.306-0.841c-0.359-0.128-0.748-0.198-1.155-0.198C610.455,112.742,608.938,114.315,608.938,116.222z"/>
<path fill="#050508" d="M619.428,111.659l6.562,6.871v-6.514h0.938v8.789l-6.559-6.859v6.48h-0.938L619.428,111.659L619.428,111.659
	z"/>
<path fill="#050508" d="M12.403,130.437h3.185c2.535,0,4.599,0.336,6.595,2.041c1.929,1.659,2.804,3.925,2.804,6.438
	c0,2.467-0.897,4.643-2.759,6.303c-2.019,1.794-4.038,2.131-6.685,2.131h-3.14V130.437z M15.655,145.599
	c2.063,0,3.791-0.291,5.338-1.749c1.391-1.301,2.108-3.073,2.108-4.957c0-1.93-0.74-3.791-2.198-5.069
	c-1.548-1.368-3.252-1.638-5.249-1.638h-1.368v13.413H15.655z"/>
<path fill="#050508" d="M32.84,142.549l-2.041,4.8h-2.063l7.806-17.72l7.604,17.72H42.06l-1.997-4.8H32.84z M36.497,134.026
	l-2.894,6.773h5.72L36.497,134.026z"/>
<path fill="#050508" d="M50.564,147.349H48.68v-16.912h2.445c3.208,0,6.191,0.852,6.191,4.665c0,2.602-1.637,4.441-4.239,4.666
	l5.383,7.581h-2.311l-5.114-7.425h-0.471V147.349z M50.564,138.265h0.583c2.131,0,4.284-0.404,4.284-3.028
	c0-2.781-2.041-3.051-4.307-3.051h-0.561L50.564,138.265L50.564,138.265z"/>
<path fill="#050508" d="M65.46,147.349h-1.884v-16.912h1.884V147.349z"/>
<path fill="#050508" d="M88.363,138.915c0,4.867-3.992,8.726-8.815,8.726c-4.823,0-8.815-3.858-8.815-8.726
	c0-0.84,0.121-1.652,0.344-2.421c0.356-1.228,0.977-2.345,1.794-3.288c0.658-0.76,1.445-1.407,2.324-1.908
	c1.289-0.734,2.776-1.153,4.353-1.153c1.504,0,2.927,0.382,4.173,1.055c1.333,0.718,2.462,1.768,3.274,3.039
	C87.859,135.592,88.363,137.196,88.363,138.915z M72.617,138.893c0,3.812,3.096,6.998,6.931,6.998s6.931-3.186,6.931-6.998
	c0-1.596-0.529-3.075-1.424-4.258c-0.632-0.834-1.447-1.522-2.39-2c-0.933-0.473-1.99-0.74-3.117-0.74
	c-1.365,0-2.628,0.392-3.691,1.066c-0.68,0.432-1.278,0.979-1.77,1.614c-0.842,1.086-1.37,2.43-1.457,3.887
	C72.622,138.604,72.617,138.748,72.617,138.893z"/>
<path fill="#050508" d="M105.103,147.349h-1.884v-16.912h2.445c3.208,0,6.191,0.852,6.191,4.665c0,2.602-1.637,4.441-4.239,4.666
	l5.383,7.581h-2.311l-5.114-7.425h-0.471V147.349z M105.103,138.265h0.583c2.131,0,4.284-0.404,4.284-3.028
	c0-2.781-2.041-3.051-4.307-3.051h-0.561L105.103,138.265L105.103,138.265z"/>
<path fill="#050508" d="M134.849,138.915c0,4.867-3.993,8.726-8.815,8.726c-4.822,0-8.815-3.858-8.815-8.726
	c0-4.845,3.993-8.771,8.815-8.771C130.856,130.145,134.849,134.071,134.849,138.915z M119.102,138.893
	c0,3.812,3.096,6.998,6.931,6.998s6.931-3.186,6.931-6.998c0-3.836-3.051-6.998-6.931-6.998c-0.918,0-1.79,0.177-2.586,0.498
	c-0.84,0.339-1.595,0.839-2.231,1.46c-0.832,0.812-1.46,1.831-1.807,2.972C119.209,137.479,119.102,138.174,119.102,138.893z"/>
<path fill="#050508" d="M147.773,133.734c-0.673-1.166-1.48-1.839-2.916-1.839c-1.503,0-2.804,1.076-2.804,2.624
	c0,1.458,1.503,2.131,2.646,2.646l1.122,0.493c2.198,0.965,4.06,2.064,4.06,4.756c0,2.961-2.377,5.227-5.316,5.227
	c-2.714,0-4.733-1.75-5.271-4.374l1.839-0.517c0.247,1.728,1.57,3.141,3.387,3.141s3.477-1.391,3.477-3.297
	c0-1.975-1.547-2.647-3.118-3.365l-1.032-0.448c-1.974-0.897-3.679-1.906-3.679-4.329c0-2.624,2.221-4.307,4.733-4.307
	c1.884,0,3.477,0.965,4.374,2.624L147.773,133.734z"/>
<path fill="#050508" d="M168.232,134.137c-1.346-1.391-3.208-2.242-5.159-2.242c-3.769,0-6.819,3.274-6.819,6.998
	c0,3.724,3.073,6.998,6.864,6.998c1.906,0,3.768-0.897,5.114-2.243v2.333c-1.458,1.054-3.252,1.66-5.047,1.66
	c-4.777,0-8.815-3.881-8.815-8.681c0-4.846,3.97-8.815,8.815-8.815c1.884,0,3.544,0.538,5.047,1.66V134.137z"/>
<path fill="#050508" d="M176.042,147.349h-1.884v-16.912h1.884V147.349z"/>
<path fill="#050508" d="M197.89,138.848c0.045,2.288-0.202,4.172-1.75,5.967c-1.547,1.794-3.903,2.826-6.258,2.826
	c-4.755,0-8.703-3.948-8.703-8.703c0-4.846,3.948-8.793,8.815-8.793c2.961,0,5.361,1.323,7.156,3.656l-1.369,1.278
	c-1.413-1.996-3.319-3.185-5.809-3.185c-3.858,0-6.909,3.252-6.909,7.065c0,1.794,0.718,3.499,1.974,4.777
	c1.234,1.233,3.028,2.153,4.8,2.153c2.938,0,6.034-2.153,6.034-5.294h-5.024v-1.749h7.043V138.848z"/>
<path fill="#050508" d="M205.139,145.599h4.666v1.75h-6.55v-16.912h1.884V145.599z"/>
<path fill="#050508" d="M216.29,147.349h-1.884v-16.912h1.884V147.349z"/>
<path fill="#050508" d="M239.192,138.915c0,4.867-3.992,8.726-8.815,8.726c-4.823,0-8.815-3.858-8.815-8.726
	c0-0.914,0.142-1.794,0.405-2.623c0.379-1.194,1.008-2.277,1.825-3.19c0.811-0.907,1.806-1.646,2.925-2.159
	c1.118-0.513,2.359-0.799,3.66-0.799c1.319,0,2.575,0.294,3.705,0.819c0.883,0.411,1.688,0.963,2.385,1.627
	c0.702,0.668,1.294,1.451,1.745,2.317C238.838,136.109,239.192,137.471,239.192,138.915z M223.446,138.893
	c0,3.812,3.096,6.998,6.931,6.998s6.931-3.186,6.931-6.998c0-1.576-0.515-3.039-1.392-4.215c-0.752-1.01-1.77-1.808-2.957-2.286
	c-0.795-0.32-1.666-0.497-2.583-0.497c-1.159,0-2.244,0.282-3.196,0.78c-0.728,0.38-1.377,0.887-1.922,1.49
	c-0.916,1.013-1.538,2.296-1.741,3.712C223.47,138.209,223.446,138.548,223.446,138.893z"/>
<path fill="#050508" d="M244.558,129.719l13.189,13.816v-13.099h1.884v17.675l-13.189-13.795v13.032h-1.884V129.719L244.558,129.719
	z"/>
<path fill="#050508" d="M265.848,130.437h8.771v1.749h-6.886v5.024h6.684v1.75h-6.684v6.639h6.886v1.75h-8.771V130.437z"/>
<path fill="#050508" d="M289.266,138.938h1.383c1.528,0,2.811,0.558,2.811,2.275c0,0.681-0.256,1.261-0.825,1.64
	c1.004,0.245,1.595,1.148,1.595,2.152c0,1.674-1.35,2.343-3.012,2.343h-1.952V138.938z M290.203,142.642h0.357
	c1.06,0,1.963-0.123,1.963-1.428c0-1.271-0.803-1.405-1.952-1.405h-0.368V142.642z M290.203,146.479h0.937
	c1.048,0,2.153-0.257,2.153-1.539c0-1.305-1.25-1.495-2.275-1.495h-0.814L290.203,146.479L290.203,146.479z"/>
<path fill="#050508" d="M298.196,144.962l-1.015,2.387h-1.026l3.882-8.812l3.781,8.812h-1.038l-0.993-2.387H298.196z
	 M300.015,140.723l-1.439,3.369h2.844L300.015,140.723z"/>
<path fill="#050508" d="M309.881,140.578c-0.335-0.58-0.736-0.915-1.45-0.915c-0.748,0-1.394,0.536-1.394,1.306
	c0,0.725,0.747,1.06,1.313,1.315l0.561,0.246c1.093,0.479,2.019,1.026,2.019,2.364c0,1.473-1.182,2.599-2.644,2.599
	c-1.353,0-2.354-0.869-2.621-2.175l0.915-0.256c0.123,0.858,0.781,1.562,1.684,1.562c0.904,0,1.729-0.692,1.729-1.64
	c0-0.982-0.771-1.316-1.55-1.674l-0.516-0.223c-0.979-0.446-1.829-0.948-1.829-2.153c0-1.305,1.104-2.142,2.354-2.142
	c0.937,0,1.729,0.479,2.175,1.306L309.881,140.578z"/>
<path fill="#050508" d="M317.451,140.578c-0.335-0.58-0.736-0.915-1.45-0.915c-0.748,0-1.394,0.536-1.394,1.306
	c0,0.725,0.744,1.06,1.313,1.315l0.559,0.246c1.095,0.479,2.021,1.026,2.021,2.364c0,1.473-1.182,2.599-2.646,2.599
	c-1.351,0-2.354-0.869-2.619-2.175l0.915-0.256c0.123,0.858,0.778,1.562,1.684,1.562s1.729-0.692,1.729-1.64
	c0-0.982-0.77-1.316-1.55-1.674l-0.513-0.223c-0.981-0.446-1.829-0.948-1.829-2.153c0-1.305,1.104-2.142,2.354-2.142
	c0.937,0,1.729,0.479,2.175,1.306L317.451,140.578z"/>
<path fill="#050508" d="M333.549,145.599h4.666v1.75h-6.55v-16.912h1.884V145.599z"/>
<path fill="#050508" d="M344.609,140.508c0,1.256-0.045,2.691,0.737,3.768c0.74,1.032,2.179,1.615,3.41,1.615
	c1.211,0,2.535-0.561,3.319-1.503c0.896-1.076,0.83-2.557,0.83-3.88v-10.071h1.885v10.587c0,1.839-0.135,3.297-1.479,4.688
	c-1.165,1.257-2.851,1.93-4.555,1.93c-1.593,0-3.229-0.606-4.374-1.728c-1.479-1.413-1.66-2.961-1.66-4.89v-10.587h1.887
	L344.609,140.508L344.609,140.508z"/>
<path fill="#050508" d="M373.729,134.137c-1.346-1.391-3.205-2.242-5.156-2.242c-3.771,0-6.819,3.274-6.819,6.998
	c0,3.724,3.073,6.998,6.864,6.998c1.906,0,3.769-0.897,5.114-2.243v2.333c-1.458,1.054-3.256,1.66-5.05,1.66
	c-4.775,0-8.812-3.881-8.812-8.681c0-4.846,3.97-8.815,8.812-8.815c1.887,0,3.544,0.538,5.05,1.66L373.729,134.137L373.729,134.137z
	"/>
<path fill="#050508" d="M381.537,147.349h-1.884v-16.912h1.884V147.349z"/>
<path fill="#050508" d="M390.197,142.549l-2.041,4.8h-2.063l7.809-17.72l7.604,17.72h-2.086l-1.996-4.8H390.197z M393.854,134.026
	l-2.894,6.773h5.72L393.854,134.026z"/>
<path fill="#050508" d="M406.148,129.719l13.188,13.816v-13.099h1.884v17.675l-13.188-13.795v13.032h-1.885L406.148,129.719
	L406.148,129.719z"/>
<path fill="#050508" d="M444.217,138.915c0,4.867-3.992,8.726-8.812,8.726c-4.823,0-8.815-3.858-8.815-8.726
	c0-4.845,3.992-8.771,8.815-8.771C440.225,130.145,444.217,134.071,444.217,138.915z M428.471,138.893
	c0,3.812,3.099,6.998,6.935,6.998c3.835,0,6.931-3.186,6.931-6.998c0-3.836-3.051-6.998-6.931-6.998
	C431.521,131.895,428.471,135.057,428.471,138.893z"/>
<path fill="#050508" d="M471.97,134.137c-1.346-1.391-3.208-2.242-5.159-2.242c-3.769,0-6.816,3.274-6.816,6.998
	c0,3.724,3.073,6.998,6.864,6.998c1.903,0,3.769-0.897,5.111-2.243v2.333c-1.458,1.054-3.253,1.66-5.047,1.66
	c-4.778,0-8.812-3.881-8.812-8.681c0-4.846,3.97-8.815,8.812-8.815c1.884,0,3.544,0.538,5.047,1.66V134.137L471.97,134.137z"/>
<path fill="#050508" d="M479.779,147.349h-1.887v-16.912h1.887V147.349z"/>
<path fill="#050508" d="M498.802,134.137c-1.346-1.391-3.208-2.242-5.159-2.242c-3.769,0-6.816,3.274-6.816,6.998
	c0,3.724,3.073,6.998,6.864,6.998c1.903,0,3.769-0.897,5.111-2.243v2.333c-1.458,1.054-3.253,1.66-5.047,1.66
	c-4.778,0-8.812-3.881-8.812-8.681c0-4.846,3.97-8.815,8.812-8.815c1.884,0,3.544,0.538,5.047,1.66V134.137L498.802,134.137z"/>
<path fill="#050508" d="M517.58,134.137c-1.346-1.391-3.208-2.242-5.159-2.242c-3.769,0-6.819,3.274-6.819,6.998
	c0,3.724,3.073,6.998,6.864,6.998c1.906,0,3.771-0.897,5.114-2.243v2.333c-1.458,1.054-3.253,1.66-5.047,1.66
	c-4.778,0-8.815-3.881-8.815-8.681c0-4.846,3.973-8.815,8.815-8.815c1.884,0,3.544,0.538,5.047,1.66V134.137z"/>
<path fill="#050508" d="M525.994,142.549l-2.041,4.8h-2.063l7.809-17.72l7.604,17.72h-2.086l-1.996-4.8H525.994z M529.65,134.026
	l-2.896,6.773h5.72L529.65,134.026z"/>
<path fill="#050508" d="M557.558,138.848c0.045,2.288-0.202,4.172-1.75,5.967c-1.548,1.794-3.899,2.826-6.258,2.826
	c-4.756,0-8.703-3.948-8.703-8.703c0-4.846,3.947-8.793,8.815-8.793c2.961,0,5.359,1.323,7.155,3.656l-1.368,1.278
	c-1.413-1.996-3.32-3.185-5.812-3.185c-3.855,0-6.906,3.252-6.906,7.065c0,1.794,0.718,3.499,1.975,4.777
	c1.232,1.233,3.027,2.153,4.8,2.153c2.938,0,6.034-2.153,6.034-5.294h-5.024v-1.749h7.043V138.848L557.558,138.848z"/>
<path fill="#050508" d="M564.807,145.599h4.665v1.75h-6.549v-16.912h1.884V145.599L564.807,145.599z"/>
<path fill="#050508" d="M575.957,147.349h-1.884v-16.912h1.884V147.349z"/>
<path fill="#050508" d="M598.859,138.915c0,4.867-3.992,8.726-8.814,8.726c-4.823,0-8.814-3.858-8.814-8.726
	c0-4.845,3.991-8.771,8.814-8.771C594.867,130.145,598.859,134.071,598.859,138.915z M583.113,138.893
	c0,3.812,3.096,6.998,6.932,6.998c3.835,0,6.931-3.186,6.931-6.998c0-3.836-3.051-6.998-6.931-6.998
	C586.164,131.895,583.113,135.057,583.113,138.893z"/>
<path fill="#050508" d="M604.225,129.719l13.189,13.816v-13.099h1.884v17.675l-13.188-13.795v13.032h-1.888L604.225,129.719
	L604.225,129.719z"/>
<path fill="#050508" d="M627.445,147.349h-1.887v-16.912h1.887V147.349z"/>
<path fill="#050508" d="M650.135,143.121c0.022,1.138-0.101,2.075-0.87,2.967c-0.77,0.893-1.938,1.405-3.109,1.405
	c-2.364,0-4.327-1.963-4.327-4.327c0-2.409,1.963-4.373,4.383-4.373c1.473,0,2.666,0.658,3.559,1.818l-0.681,0.636
	c-0.702-0.992-1.649-1.584-2.889-1.584c-1.919,0-3.438,1.618-3.438,3.514c0,0.893,0.356,1.74,0.981,2.376
	c0.612,0.613,1.506,1.071,2.387,1.071c1.462,0,3.001-1.071,3.001-2.633h-2.499v-0.87H650.135z"/>
<path fill="#050508" d="M653.71,143.947c0,0.625-0.021,1.339,0.368,1.874c0.368,0.514,1.081,0.804,1.695,0.804
	c0.602,0,1.26-0.279,1.647-0.748c0.446-0.535,0.413-1.271,0.413-1.93v-5.008h0.938v5.265c0,0.915-0.066,1.64-0.736,2.331
	c-0.58,0.625-1.416,0.959-2.264,0.959c-0.792,0-1.606-0.301-2.179-0.858c-0.732-0.703-0.822-1.473-0.822-2.432v-5.265h0.938
	L653.71,143.947L653.71,143.947z"/>
<path fill="#050508" d="M662.729,147.349h-0.938v-8.41h0.938V147.349z"/>
<path fill="#050508" d="M668.002,147.349h-0.937v-7.54h-2.03v-0.87h5.02v0.87h-2.053V147.349z"/>
<path fill="#050508" d="M672.72,144.962l-1.016,2.387h-1.025l3.881-8.812l3.781,8.812h-1.037l-0.992-2.387H672.72z M674.538,140.723
	l-1.439,3.369h2.848L674.538,140.723z"/>
<path fill="#050508" d="M681.526,147.349h-0.938v-8.41h1.216c1.598,0,3.078,0.424,3.078,2.32c0,1.294-0.812,2.208-2.104,2.319
	l2.677,3.771h-1.148l-2.544-3.692h-0.231L681.526,147.349L681.526,147.349z M681.526,142.831h0.29c1.061,0,2.131-0.2,2.131-1.506
	c0-1.383-1.018-1.517-2.145-1.517h-0.276V142.831L681.526,142.831z"/>
<path fill="#050508" d="M691.784,140.578c-0.334-0.58-0.736-0.915-1.449-0.915c-0.748,0-1.395,0.536-1.395,1.306
	c0,0.725,0.747,1.06,1.313,1.315l0.561,0.246c1.093,0.479,2.019,1.026,2.019,2.364c0,1.473-1.183,2.599-2.644,2.599
	c-1.353,0-2.354-0.869-2.621-2.175l0.914-0.256c0.123,0.858,0.778,1.562,1.685,1.562s1.729-0.692,1.729-1.64
	c0-0.982-0.771-1.316-1.554-1.674l-0.513-0.223c-0.982-0.446-1.83-0.948-1.83-2.153c0-1.305,1.104-2.142,2.354-2.142
	c0.938,0,1.729,0.479,2.177,1.306L691.784,140.578z"/>
<path fill="#050508" d="M45.875,169.471l-2.041,4.8h-2.063l7.806-17.72l7.604,17.72h-2.086l-1.996-4.8H45.875z M49.531,160.948
	l-2.894,6.773h5.72L49.531,160.948z"/>
<path fill="#050508" d="M61.827,156.641l13.189,13.816v-13.099H76.9v17.675l-13.189-13.795v13.032h-1.884V156.641z"/>
<path fill="#050508" d="M87.604,174.271H85.72v-15.163h-4.083v-1.749H91.73v1.749h-4.127L87.604,174.271L87.604,174.271z"/>
<path fill="#050508" d="M113.132,165.837c0,4.867-3.993,8.726-8.815,8.726c-4.822,0-8.815-3.858-8.815-8.726
	c0-1.047,0.187-2.051,0.527-2.981c0.536-1.465,1.456-2.749,2.634-3.73c1.537-1.284,3.514-2.058,5.654-2.057
	c1.509,0,2.937,0.385,4.187,1.062c1.193,0.646,2.225,1.56,3.009,2.659C112.53,162.214,113.132,163.956,113.132,165.837z
	 M97.385,165.815c0,0.477,0.048,0.943,0.141,1.396c0.645,3.163,3.435,5.602,6.791,5.602c3.835,0,6.931-3.186,6.931-6.998
	c0-1.735-0.624-3.332-1.667-4.561c-0.912-1.076-2.146-1.87-3.562-2.227c-0.543-0.137-1.113-0.21-1.702-0.21
	c-1.762,0-3.353,0.652-4.565,1.724c-0.975,0.862-1.705,1.995-2.081,3.278C97.484,164.453,97.385,165.123,97.385,165.815z"/>
<path fill="#050508" d="M118.497,156.641l13.189,13.816v-13.099h1.884v17.675l-13.189-13.795v13.032h-1.884V156.641z"/>
<path fill="#050508" d="M139.787,157.359h8.771v1.749h-6.886v5.024h6.684v1.75h-6.684v6.639h6.886v1.75h-8.771V157.359z"/>
<path fill="#050508" d="M156.344,172.521h4.666v1.75h-6.55v-16.912h1.884V172.521z"/>
<path fill="#050508" d="M167.449,172.521h4.666v1.75h-6.55v-16.912h1.884V172.521z"/>
<path fill="#050508" d="M193.448,165.837c0,4.867-3.993,8.726-8.815,8.726c-4.822,0-8.815-3.858-8.815-8.726
	c0-1.222,0.253-2.385,0.71-3.442c0.457-1.057,1.118-2.006,1.931-2.801c0.889-0.87,1.959-1.554,3.146-1.99
	c0.947-0.348,1.968-0.538,3.028-0.538c1.312,0,2.563,0.291,3.689,0.812c1.458,0.675,2.707,1.737,3.606,3.053
	C192.886,162.331,193.448,164.019,193.448,165.837z M177.702,165.815c0,3.812,3.096,6.998,6.931,6.998s6.931-3.186,6.931-6.998
	c0-1.537-0.489-2.965-1.325-4.126c-0.674-0.935-1.574-1.696-2.624-2.199c-0.899-0.431-1.909-0.673-2.982-0.673
	c-1.347,0-2.594,0.381-3.648,1.04c-1.34,0.836-2.369,2.121-2.895,3.64C177.838,164.223,177.702,165.004,177.702,165.815z"/>
<path fill="#050508" d="M213.597,170.256l4.823-12.897h2.041l-6.864,17.922l-6.863-17.922h2.041L213.597,170.256z"/>
<path fill="#050508" d="M225.289,169.471l-2.041,4.8h-2.063l7.806-17.72l7.604,17.72h-2.086l-1.996-4.8H225.289z M228.945,160.948
	l-2.894,6.773h5.72L228.945,160.948z"/>
<path fill="#050508" d="M241.241,156.641l13.189,13.816v-13.099h1.884v17.675l-13.189-13.795v13.032h-1.884V156.641z"/>
<path fill="#050508" d="M262.644,156.641l13.189,13.816v-13.099h1.884v17.675l-13.189-13.795v13.032h-1.884V156.641z"/>
<path fill="#050508" d="M285.773,167.43c0,1.256-0.045,2.691,0.74,3.768c0.74,1.032,2.176,1.615,3.41,1.615
	c1.211,0,2.535-0.561,3.319-1.503c0.897-1.076,0.83-2.557,0.83-3.88v-10.071h1.884v10.587c0,1.839-0.135,3.297-1.48,4.688
	c-1.167,1.257-2.849,1.93-4.553,1.93c-1.593,0-3.23-0.604-4.374-1.728c-1.48-1.413-1.66-2.961-1.66-4.89v-10.587h1.884V167.43
	L285.773,167.43z"/>
<path fill="#050508" d="M314.892,161.059c-1.346-1.391-3.208-2.242-5.156-2.242c-3.771,0-6.819,3.274-6.819,6.998
	c0,3.724,3.073,6.998,6.864,6.998c1.903,0,3.768-0.896,5.111-2.243v2.333c-1.458,1.054-3.252,1.66-5.047,1.66
	c-4.777,0-8.812-3.881-8.812-8.681c0-4.846,3.97-8.815,8.812-8.815c1.887,0,3.544,0.538,5.047,1.66V161.059L314.892,161.059z"/>
<path fill="#050508" d="M333.669,161.059c-1.346-1.391-3.208-2.242-5.159-2.242c-3.769,0-6.816,3.274-6.816,6.998
	c0,3.724,3.07,6.998,6.861,6.998c1.906,0,3.771-0.896,5.114-2.243v2.333c-1.458,1.054-3.252,1.66-5.047,1.66
	c-4.777,0-8.815-3.881-8.815-8.681c0-4.846,3.973-8.815,8.815-8.815c1.884,0,3.544,0.538,5.047,1.66V161.059L333.669,161.059z"/>
<path fill="#050508" d="M350.182,164.222v-6.863h1.887v16.912h-1.887v-8.299h-8.655v8.299h-1.887v-16.912h1.887v6.863H350.182z"/>
<path fill="#050508" d="M360.189,174.271h-1.887v-16.912h1.887V174.271z"/>
<path fill="#050508" d="M383.403,170.076c0,2.421-1.985,4.339-4.387,4.339c-2.396,0-4.384-1.918-4.384-4.339
	c0-1.021,0.356-1.959,0.95-2.703c0.445-0.558,1.024-1.005,1.688-1.294c0.535-0.234,1.129-0.364,1.745-0.364
	c0.729,0,1.415,0.179,2.021,0.496c0.646,0.336,1.199,0.829,1.608,1.427C383.124,168.334,383.403,169.173,383.403,170.076z
	 M375.572,170.066c0,1.896,1.54,3.48,3.444,3.48c1.907,0,3.446-1.584,3.446-3.48c0-0.635-0.168-1.233-0.464-1.749
	c-0.368-0.642-0.935-1.155-1.62-1.451c-0.416-0.18-0.876-0.28-1.362-0.28c-0.964,0-1.823,0.393-2.444,1.023
	C375.951,168.241,375.572,169.112,375.572,170.066z"/>
<path fill="#050508" d="M386.944,174.271h-0.938v-8.41h1.216c1.598,0,3.078,0.424,3.078,2.32c0,1.294-0.812,2.208-2.104,2.319
	l2.677,3.771h-1.148l-2.544-3.692h-0.231L386.944,174.271L386.944,174.271z M386.944,169.753h0.29c1.061,0,2.131-0.2,2.131-1.506
	c0-1.383-1.018-1.517-2.145-1.517h-0.276V169.753L386.944,169.753z"/>
<path fill="#050508" d="M401.207,170.043c0.021,1.138-0.101,2.075-0.87,2.967c-0.77,0.893-1.938,1.405-3.112,1.405
	c-2.361,0-4.324-1.963-4.324-4.327c0-2.409,1.963-4.373,4.383-4.373c1.473,0,2.666,0.658,3.559,1.818l-0.681,0.636
	c-0.702-0.992-1.65-1.584-2.892-1.584c-1.919,0-3.436,1.618-3.436,3.514c0,0.893,0.356,1.74,0.981,2.376
	c0.61,0.613,1.506,1.071,2.387,1.071c1.462,0,3.001-1.071,3.001-2.633h-2.499v-0.87H401.207z"/>
<path fill="#050508" d="M405.128,171.884l-1.016,2.387h-1.025l3.881-8.812l3.781,8.812h-1.037l-0.992-2.387H405.128z
	 M406.946,167.645l-1.439,3.369h2.845L406.946,167.645z"/>
<path fill="#050508" d="M413.054,165.503l6.562,6.871v-6.514h0.938v8.789l-6.559-6.859v6.48h-0.938L413.054,165.503L413.054,165.503
	z"/>
<path fill="#050508" d="M449.758,165.77c0.045,2.288-0.202,4.172-1.75,5.967c-1.548,1.794-3.899,2.826-6.258,2.826
	c-4.755,0-8.703-3.948-8.703-8.703c0-4.846,3.948-8.793,8.815-8.793c2.961,0,5.357,1.323,7.152,3.656l-1.365,1.278
	c-1.413-1.996-3.32-3.185-5.812-3.185c-3.855,0-6.909,3.252-6.909,7.065c0,1.794,0.721,3.499,1.978,4.777
	c1.23,1.233,3.024,2.153,4.8,2.153c2.938,0,6.034-2.153,6.034-5.294h-5.024v-1.749h7.043V165.77z"/>
<path fill="#050508" d="M457.052,174.271h-1.884v-16.912h1.884V174.271z"/>
<path fill="#050508" d="M465.061,172.521h4.665v1.75h-6.549v-16.912h1.884V172.521z"/>
<path fill="#050508" d="M474.282,157.359h3.185c2.535,0,4.602,0.336,6.598,2.041c1.929,1.659,2.804,3.925,2.804,6.438
	c0,2.467-0.897,4.643-2.759,6.303c-2.021,1.794-4.037,2.131-6.688,2.131h-3.14V157.359L474.282,157.359z M477.534,172.521
	c2.062,0,3.791-0.291,5.339-1.749c1.391-1.301,2.108-3.073,2.108-4.957c0-1.93-0.74-3.791-2.198-5.069
	c-1.548-1.368-3.253-1.638-5.249-1.638h-1.368v13.413H477.534z"/>
<path fill="#050508" d="M494.719,169.471l-2.041,4.8h-2.062l7.806-17.72l7.604,17.72h-2.086l-1.996-4.8H494.719z M498.375,160.948
	l-2.894,6.773h5.72L498.375,160.948z"/>
<path fill="#050508" d="M520.161,157.359h2.781c3.069,0,5.649,1.121,5.649,4.575c0,1.368-0.516,2.535-1.66,3.298
	c2.021,0.493,3.208,2.31,3.208,4.329c0,3.364-2.714,4.71-6.057,4.71h-3.925L520.161,157.359L520.161,157.359z M522.045,164.805
	h0.718c2.131,0,3.947-0.246,3.947-2.871c0-2.557-1.614-2.826-3.925-2.826h-0.74V164.805L522.045,164.805z M522.045,172.521h1.884
	c2.108,0,4.329-0.516,4.329-3.095c0-2.625-2.512-3.006-4.575-3.006h-1.638V172.521L522.045,172.521z"/>
<path fill="#050508" d="M537.435,167.43c0,1.256-0.045,2.691,0.74,3.768c0.74,1.032,2.176,1.615,3.409,1.615
	c1.212,0,2.535-0.561,3.32-1.503c0.896-1.076,0.829-2.557,0.829-3.88v-10.071h1.885v10.587c0,1.839-0.135,3.297-1.48,4.688
	c-1.166,1.257-2.849,1.93-4.554,1.93c-1.593,0-3.229-0.604-4.374-1.728c-1.479-1.413-1.659-2.961-1.659-4.89v-10.587h1.884V167.43
	L537.435,167.43z"/>
<path fill="#050508" d="M558.142,174.271h-1.884v-15.163h-4.082v-1.749h10.097v1.749h-4.13L558.142,174.271L558.142,174.271z"/>
<path fill="#050508" d="M571.378,174.271h-1.884v-15.163h-4.082v-1.749h10.094v1.749h-4.128V174.271L571.378,174.271z"/>
<path fill="#050508" d="M580.872,169.471l-2.041,4.8h-2.063l7.809-17.72l7.604,17.72h-2.086l-1.996-4.8H580.872z M584.528,160.948
	l-2.896,6.773h5.72L584.528,160.948z"/>
<path fill="#050508" d="M598.33,157.672l-2.558,5.72l-1.212-0.471l2.106-5.854L598.33,157.672z"/>
<path fill="#050508" d="M619.195,167.701c-0.67-0.692-1.599-1.116-2.565-1.116c-1.874,0-3.392,1.629-3.392,3.48
	s1.525,3.48,3.413,3.48c0.945,0,1.874-0.446,2.544-1.116v1.16c-0.729,0.524-1.618,0.825-2.513,0.825
	c-2.376,0-4.384-1.929-4.384-4.316c0-2.409,1.978-4.384,4.384-4.384c0.938,0,1.765,0.269,2.513,0.826V167.701z"/>
<path fill="#050508" d="M622.113,165.861h4.358v0.87h-3.425v2.498h3.324v0.87h-3.324v3.302h3.425v0.87h-4.358V165.861z"/>
<path fill="#050508" d="M630.341,173.401h2.32v0.87h-3.257v-8.41h0.937V173.401z"/>
<path fill="#050508" d="M634.923,165.861h4.361v0.87h-3.424v2.498h3.32v0.87h-3.32v3.302h3.424v0.87h-4.361V165.861z"/>
<path fill="#050508" d="M646.028,167.5c-0.334-0.58-0.736-0.915-1.449-0.915c-0.748,0-1.396,0.536-1.396,1.306
	c0,0.725,0.747,1.06,1.316,1.315l0.558,0.246c1.096,0.479,2.021,1.026,2.021,2.364c0,1.473-1.186,2.599-2.646,2.599
	c-1.35,0-2.354-0.869-2.619-2.175l0.912-0.256c0.123,0.858,0.781,1.562,1.688,1.562s1.729-0.692,1.729-1.64
	c0-0.982-0.771-1.316-1.551-1.674l-0.513-0.223c-0.982-0.446-1.83-0.948-1.83-2.153c0-1.305,1.104-2.142,2.354-2.142
	c0.938,0,1.729,0.48,2.179,1.306L646.028,167.5z"/>
<path fill="#050508" d="M652.014,174.271h-0.937v-7.54h-2.03v-0.87h5.021v0.87h-2.056L652.014,174.271L652.014,174.271z"/>
<path fill="#050508" d="M656.731,171.884l-1.019,2.387h-1.022l3.881-8.812l3.778,8.812h-1.034l-0.992-2.387H656.731z
	 M658.55,167.645l-1.438,3.369h2.845L658.55,167.645z"/>
<path fill="#050508" d="M2.919,200.86l2.464-6.103l2.465,6.103l2-5.707h0.919l-2.919,8.01l-2.465-6.131l-2.464,6.131L0,195.153
	h0.919L2.919,200.86z"/>
<path fill="#050508" d="M16.557,202.769h-0.848v-7.615h0.848V202.769z"/>
<path fill="#050508" d="M24.159,202.769H23.31v-6.828h-1.838v-0.787h4.545v0.787h-1.858V202.769z"/>
<path fill="#050508" d="M35.709,198.243v-3.092h0.849v7.616h-0.849v-3.737H31.81v3.737h-0.849v-7.616h0.849v3.092H35.709z"/>
<path fill="#050508" d="M51.335,202.769h-0.849v-6.828h-1.838v-0.787h4.545v0.787h-1.858V202.769z"/>
<path fill="#050508" d="M62.885,198.243v-3.092h0.849v7.616h-0.849v-3.737h-3.899v3.737h-0.849v-7.616h0.849v3.092H62.885z"/>
<path fill="#050508" d="M69.343,195.153h3.95v0.787h-3.101v2.264h3.01v0.787h-3.01v2.989h3.101v0.788h-3.95V195.153z"/>
<path fill="#050508" d="M85.918,195.153h1.252c1.384,0,2.546,0.504,2.546,2.061c0,0.615-0.232,1.142-0.748,1.484
	c0.909,0.223,1.444,1.041,1.444,1.947c0,1.518-1.222,2.121-2.727,2.121h-1.768L85.918,195.153L85.918,195.153z M86.767,198.506
	h0.323c0.959,0,1.778-0.111,1.778-1.293c0-1.151-0.728-1.272-1.768-1.272h-0.333V198.506z M86.767,201.98h0.849
	c0.949,0,1.949-0.229,1.949-1.394c0-1.182-1.131-1.354-2.061-1.354h-0.737V201.98z"/>
<path fill="#050508" d="M97.044,202.323c0,0.313-0.252,0.576-0.565,0.576s-0.566-0.263-0.566-0.576c0-0.303,0.253-0.556,0.566-0.556
	S97.044,202.021,97.044,202.323z"/>
<path fill="#050508" d="M103.707,202.769h-0.848v-7.615h0.848V202.769z"/>
<path fill="#050508" d="M110.642,202.323c0,0.313-0.252,0.576-0.565,0.576s-0.566-0.263-0.566-0.576
	c0-0.303,0.253-0.556,0.566-0.556S110.642,202.021,110.642,202.323z"/>
<path fill="#050508" d="M117.426,194.718l2.768,6.395l2.778-6.395l1.545,8.051h-0.869l-0.98-5.15h-0.02l-2.455,5.467l-2.444-5.467
	h-0.021l-0.979,5.15h-0.869L117.426,194.718z"/>
<path fill="#050508" d="M130.873,202.323c0,0.313-0.252,0.576-0.565,0.576s-0.566-0.263-0.566-0.576
	c0-0.303,0.253-0.556,0.566-0.556S130.873,202.021,130.873,202.323z"/>
<path fill="#050508" d="M151.37,198.971c0,2.19-1.798,3.929-3.97,3.929c-2.171,0-3.97-1.736-3.97-3.929
	c0-0.832,0.262-1.604,0.705-2.239c0.406-0.582,0.963-1.052,1.613-1.35c0.504-0.232,1.064-0.361,1.652-0.361
	c0.6,0,1.171,0.135,1.684,0.376c0.619,0.291,1.152,0.736,1.548,1.287C151.096,197.329,151.37,198.118,151.37,198.971z
	 M144.279,198.96c0,1.718,1.394,3.152,3.121,3.152c1.728,0,3.122-1.438,3.122-3.152c0-0.695-0.224-1.344-0.604-1.867
	c-0.32-0.441-0.753-0.796-1.258-1.02c-0.384-0.17-0.81-0.267-1.26-0.267c-0.618,0-1.188,0.181-1.668,0.485
	c-0.527,0.336-0.945,0.826-1.195,1.406C144.37,198.089,144.279,198.515,144.279,198.96z"/>
<path fill="#050508" d="M157.402,202.769h-0.849v-7.615h1.101c1.445,0,2.788,0.383,2.788,2.101c0,1.172-0.737,2-1.909,2.102
	l2.424,3.414h-1.041l-2.303-3.344h-0.212L157.402,202.769L157.402,202.769z M157.402,198.678h0.263c0.959,0,1.929-0.183,1.929-1.364
	c0-1.252-0.919-1.373-1.939-1.373h-0.252L157.402,198.678L157.402,198.678z"/>
<path fill="#050508" d="M171.872,196.819c-0.606-0.627-1.445-1.011-2.324-1.011c-1.697,0-3.071,1.476-3.071,3.151
	c0,1.675,1.384,3.152,3.091,3.152c0.858,0,1.697-0.404,2.303-1.014v1.053c-0.657,0.476-1.465,0.748-2.273,0.748
	c-2.152,0-3.97-1.748-3.97-3.91c0-2.184,1.788-3.972,3.97-3.972c0.849,0,1.596,0.243,2.273,0.748L171.872,196.819L171.872,196.819z"
	/>
<path fill="#050508" d="M182.127,198.243v-3.092h0.849v7.616h-0.849v-3.737h-3.899v3.737h-0.849v-7.616h0.849v3.092H182.127z"/>
<path fill="#050508" d="M188.585,195.153h3.95v0.787h-3.101v2.264h3.01v0.787h-3.01v2.989h3.101v0.788h-3.95V195.153z"/>
<path fill="#050508" d="M201.469,196.637c-0.303-0.524-0.667-0.828-1.313-0.828c-0.677,0-1.263,0.485-1.263,1.183
	c0,0.656,0.677,0.959,1.192,1.191l0.505,0.223c0.99,0.437,1.828,0.932,1.828,2.144c0,1.334-1.071,2.354-2.394,2.354
	c-1.222,0-2.131-0.787-2.374-1.972l0.829-0.229c0.111,0.775,0.707,1.414,1.525,1.414s1.565-0.627,1.565-1.484
	c0-0.891-0.697-1.191-1.404-1.516l-0.465-0.203c-0.889-0.402-1.657-0.857-1.657-1.948c0-1.183,1-1.938,2.131-1.938
	c0.849,0,1.566,0.435,1.97,1.183L201.469,196.637z"/>
<path fill="#050508" d="M209.715,202.769h-0.849v-6.828h-1.838v-0.787h4.545v0.787h-1.858V202.769z"/>
<path fill="#050508" d="M217.326,202.769h-0.849v-7.615h1.101c1.445,0,2.788,0.383,2.788,2.101c0,1.172-0.737,2-1.909,2.102
	l2.424,3.414h-1.041l-2.303-3.344h-0.212L217.326,202.769L217.326,202.769z M217.326,198.678h0.263c0.959,0,1.929-0.183,1.929-1.364
	c0-1.252-0.919-1.373-1.939-1.373h-0.252L217.326,198.678L217.326,198.678z"/>
<path fill="#050508" d="M227.129,200.606l-0.919,2.162h-0.929l3.515-7.98l3.424,7.98h-0.939l-0.899-2.162H227.129z M228.775,196.769
	l-1.303,3.051h2.576L228.775,196.769z"/>
<path fill="#050508" d="M245.37,200.606l-0.919,2.162h-0.929l3.515-7.98l3.424,7.98h-0.939l-0.899-2.162H245.37z M247.017,196.769
	l-1.303,3.051h2.576L247.017,196.769z"/>
<path fill="#050508" d="M255.374,194.829l5.939,6.223v-5.898h0.849v7.959l-5.94-6.213v5.867h-0.848V194.829L255.374,194.829z"/>
<path fill="#050508" d="M267.78,195.153h1.435c1.142,0,2.071,0.15,2.97,0.918c0.869,0.748,1.263,1.769,1.263,2.897
	c0,1.108-0.404,2.091-1.243,2.838c-0.909,0.812-1.818,0.96-3.01,0.96h-1.414L267.78,195.153L267.78,195.153z M269.245,201.98
	c0.929,0,1.707-0.131,2.404-0.788c0.626-0.586,0.949-1.384,0.949-2.229c0-0.868-0.333-1.707-0.99-2.282
	c-0.697-0.615-1.465-0.734-2.364-0.734h-0.616v6.039L269.245,201.98L269.245,201.98z"/>
<path fill="#050508" d="M291.619,196.819c-0.606-0.627-1.445-1.011-2.324-1.011c-1.697,0-3.071,1.476-3.071,3.151
	c0,1.675,1.384,3.152,3.091,3.152c0.858,0,1.697-0.404,2.303-1.014v1.053c-0.657,0.476-1.465,0.748-2.273,0.748
	c-2.152,0-3.97-1.748-3.97-3.91c0-2.184,1.788-3.972,3.97-3.972c0.849,0,1.596,0.243,2.273,0.748L291.619,196.819L291.619,196.819z"
	/>
<path fill="#050508" d="M298.228,200.606l-0.919,2.162h-0.929l3.515-7.98l3.424,7.98h-0.939l-0.899-2.162H298.228z M299.875,196.769
	l-1.303,3.051h2.576L299.875,196.769z"/>
<path fill="#050508" d="M308.231,194.829l5.938,6.223v-5.898h0.849v7.959l-5.938-6.213v5.867h-0.848L308.231,194.829
	L308.231,194.829z"/>
<path fill="#050508" d="M322.659,202.769h-0.852v-6.828h-1.838v-0.787h4.545v0.787h-1.855V202.769z"/>
<path fill="#050508" d="M336.977,198.971c0,2.19-1.798,3.929-3.97,3.929c-2.171,0-3.97-1.736-3.97-3.929
	c0-2.183,1.798-3.95,3.97-3.95C335.178,195.021,336.977,196.788,336.977,198.971z M329.885,198.96c0,1.718,1.396,3.152,3.121,3.152
	c1.729,0,3.122-1.438,3.122-3.152c0-1.727-1.374-3.151-3.122-3.151S329.885,197.233,329.885,198.96z"/>
<path fill="#050508" d="M343.009,202.769h-0.849v-7.615h1.101c1.444,0,2.788,0.383,2.788,2.101c0,1.172-0.734,2-1.909,2.102
	l2.427,3.414h-1.041l-2.306-3.344h-0.212L343.009,202.769L343.009,202.769z M343.009,198.678h0.266c0.959,0,1.929-0.183,1.929-1.364
	c0-1.252-0.919-1.373-1.939-1.373h-0.252L343.009,198.678L343.009,198.678z"/>
<path fill="#050508" d="M352.539,202.769h-0.849v-7.615h0.849V202.769z"/>
<path fill="#050508" d="M366.258,194.718l2.771,6.395l2.775-6.395l1.545,8.051h-0.865l-0.98-5.15h-0.02l-2.455,5.467l-2.444-5.467
	h-0.021l-0.979,5.15h-0.869L366.258,194.718z"/>
<path fill="#050508" d="M385.907,198.971c0,2.19-1.798,3.929-3.97,3.929c-2.175,0-3.973-1.736-3.973-3.929
	c0-0.888,0.297-1.706,0.795-2.365c0.374-0.495,0.862-0.899,1.424-1.177c0.53-0.261,1.125-0.408,1.754-0.408
	c0.741,0,1.44,0.207,2.038,0.566c0.625,0.375,1.142,0.917,1.48,1.562C385.744,197.696,385.907,198.315,385.907,198.971z
	 M378.816,198.96c0,1.718,1.394,3.152,3.121,3.152c1.727,0,3.118-1.438,3.118-3.152c0-0.613-0.173-1.189-0.476-1.678
	c-0.303-0.487-0.733-0.887-1.248-1.146c-0.418-0.211-0.892-0.33-1.396-0.33c-0.546,0-1.056,0.14-1.495,0.384
	c-0.581,0.318-1.048,0.817-1.327,1.422C378.923,198.022,378.816,198.479,378.816,198.96z"/>
<path fill="#050508" d="M391.091,195.153h1.438c1.142,0,2.067,0.15,2.97,0.918c0.869,0.748,1.263,1.769,1.263,2.897
	c0,1.108-0.401,2.091-1.242,2.838c-0.906,0.812-1.815,0.96-3.011,0.96h-1.414L391.091,195.153L391.091,195.153z M392.556,201.98
	c0.933,0,1.707-0.131,2.404-0.788c0.626-0.586,0.949-1.384,0.949-2.229c0-0.868-0.333-1.707-0.99-2.282
	c-0.696-0.615-1.464-0.734-2.363-0.734h-0.613v6.039L392.556,201.98L392.556,201.98z"/>
<path fill="#050508" d="M401.974,195.153h3.95v0.787h-3.102v2.264h3.01v0.787h-3.01v2.989h3.102v0.788h-3.95V195.153z"/>
<path fill="#050508" d="M412.251,202.769h-0.849v-7.615h1.102c1.444,0,2.787,0.383,2.787,2.101c0,1.172-0.737,2-1.908,2.102
	l2.424,3.414h-1.04l-2.304-3.344h-0.212V202.769z M412.251,198.678h0.263c0.96,0,1.933-0.183,1.933-1.364
	c0-1.252-0.92-1.373-1.939-1.373h-0.253L412.251,198.678L412.251,198.678z"/>
<path fill="#050508" d="M420.963,194.829l5.939,6.223v-5.898h0.849v7.959l-5.938-6.213v5.867h-0.852L420.963,194.829
	L420.963,194.829z"/>
<path fill="#050508" d="M434.238,202.769h-0.852v-7.615h0.852V202.769z"/>
<path fill="#050508" d="M446.967,195.153h1.438c1.142,0,2.067,0.15,2.97,0.918c0.869,0.748,1.263,1.769,1.263,2.897
	c0,1.108-0.401,2.091-1.242,2.838c-0.906,0.812-1.815,0.96-3.011,0.96h-1.414L446.967,195.153L446.967,195.153z M448.432,201.98
	c0.933,0,1.707-0.131,2.404-0.788c0.626-0.586,0.949-1.384,0.949-2.229c0-0.868-0.333-1.707-0.99-2.282
	c-0.696-0.615-1.464-0.734-2.363-0.734h-0.613v6.039L448.432,201.98L448.432,201.98z"/>
<path fill="#050508" d="M458.719,202.769h-0.849v-7.615h0.849V202.769z"/>
<path fill="#050508" d="M472.589,200.606l-0.919,2.162h-0.93l3.516-7.98l3.424,7.98h-0.938l-0.898-2.162H472.589z M474.235,196.769
	l-1.306,3.051h2.575L474.235,196.769z"/>
<path fill="#050508" d="M483.391,201.98h2.104v0.788h-2.95v-7.615h0.849L483.391,201.98L483.391,201.98z"/>
<path fill="#050508" d="M490.365,195.153h3.95v0.787h-3.104v2.264h3.01v0.787h-3.01v2.989h3.104v0.788h-3.95V195.153z"/>
<path fill="#050508" d="M503.249,196.637c-0.304-0.524-0.667-0.828-1.313-0.828c-0.677,0-1.263,0.485-1.263,1.183
	c0,0.656,0.677,0.959,1.192,1.191l0.505,0.223c0.989,0.437,1.828,0.932,1.828,2.144c0,1.334-1.07,2.354-2.396,2.354
	c-1.223,0-2.132-0.787-2.374-1.972l0.828-0.229c0.111,0.775,0.707,1.414,1.525,1.414c0.815,0,1.562-0.627,1.562-1.484
	c0-0.891-0.694-1.191-1.401-1.516l-0.466-0.203c-0.891-0.402-1.655-0.857-1.655-1.948c0-1.183,1-1.938,2.132-1.938
	c0.849,0,1.562,0.435,1.97,1.183L503.249,196.637z"/>
<path fill="#050508" d="M512.931,196.637c-0.304-0.524-0.667-0.828-1.312-0.828c-0.677,0-1.263,0.485-1.263,1.183
	c0,0.656,0.677,0.959,1.189,1.191l0.505,0.223c0.989,0.437,1.828,0.932,1.828,2.144c0,1.334-1.07,2.354-2.394,2.354
	c-1.226,0-2.135-0.787-2.374-1.972l0.828-0.229c0.108,0.775,0.707,1.414,1.522,1.414c0.818,0,1.565-0.627,1.565-1.484
	c0-0.891-0.697-1.191-1.404-1.516l-0.464-0.203c-0.893-0.402-1.657-0.857-1.657-1.948c0-1.183,1-1.938,2.132-1.938
	c0.852,0,1.565,0.435,1.973,1.183L512.931,196.637z"/>
<path fill="#050508" d="M520.298,200.606l-0.919,2.162h-0.93l3.516-7.98l3.424,7.98h-0.938l-0.898-2.162H520.298z M521.944,196.769
	l-1.306,3.051h2.575L521.944,196.769z"/>
<path fill="#050508" d="M530.302,194.829l5.939,6.223v-5.898h0.849v7.959l-5.938-6.213v5.867h-0.852L530.302,194.829
	L530.302,194.829z"/>
<path fill="#050508" d="M542.708,195.153h1.435c1.145,0,2.07,0.15,2.973,0.918c0.869,0.748,1.263,1.769,1.263,2.897
	c0,1.108-0.404,2.091-1.242,2.838c-0.909,0.812-1.815,0.96-3.011,0.96h-1.414L542.708,195.153L542.708,195.153z M544.173,201.98
	c0.93,0,1.707-0.131,2.404-0.788c0.626-0.586,0.949-1.384,0.949-2.229c0-0.868-0.333-1.707-0.99-2.282
	c-0.696-0.615-1.464-0.734-2.363-0.734h-0.616v6.039L544.173,201.98L544.173,201.98z"/>
<path fill="#050508" d="M554.439,202.769h-0.852v-7.615h1.104c1.441,0,2.786,0.383,2.786,2.101c0,1.172-0.736,2-1.908,2.102
	l2.425,3.414h-1.04l-2.304-3.344h-0.212V202.769L554.439,202.769z M554.439,198.678h0.263c0.96,0,1.93-0.183,1.93-1.364
	c0-1.252-0.92-1.373-1.938-1.373h-0.253L554.439,198.678L554.439,198.678z"/>
<path fill="#050508" d="M570.655,198.971c0,2.19-1.798,3.929-3.97,3.929c-2.175,0-3.973-1.736-3.973-3.929
	c0-2.183,1.798-3.95,3.973-3.95c0.361,0,0.715,0.049,1.05,0.143c0.596,0.164,1.138,0.463,1.588,0.863
	c0.387,0.342,0.706,0.76,0.936,1.229C570.512,197.774,570.655,198.355,570.655,198.971z M563.564,198.96
	c0,1.718,1.394,3.152,3.118,3.152c1.729,0,3.121-1.438,3.121-3.152c0-0.314-0.046-0.619-0.131-0.906
	c-0.171-0.579-0.502-1.09-0.942-1.479c-0.457-0.399-1.031-0.668-1.673-0.746c-0.122-0.016-0.247-0.022-0.375-0.022
	C564.938,195.809,563.564,197.233,563.564,198.96z"/>
<path fill="#050508" d="M584.129,200.606l-0.919,2.162h-0.93l3.516-7.98l3.424,7.98h-0.938l-0.898-2.162H584.129z M585.775,196.769
	l-1.306,3.051h2.575L585.775,196.769z"/>
<path fill="#050508" d="M594.931,201.98h2.104v0.788h-2.949v-7.615h0.849L594.931,201.98L594.931,201.98z"/>
<path fill="#050508" d="M601.905,195.153h3.95v0.787h-3.104v2.264h3.01v0.787h-3.01v2.989h3.104v0.788h-3.95V195.153z"/>
<path fill="#050508" d="M614.789,196.637c-0.304-0.524-0.667-0.828-1.313-0.828c-0.677,0-1.263,0.485-1.263,1.183
	c0,0.656,0.677,0.959,1.192,1.191l0.505,0.223c0.989,0.437,1.828,0.932,1.828,2.144c0,1.334-1.07,2.354-2.396,2.354
	c-1.223,0-2.132-0.787-2.374-1.972l0.828-0.229c0.111,0.775,0.707,1.414,1.525,1.414c0.815,0,1.562-0.627,1.562-1.484
	c0-0.891-0.694-1.191-1.401-1.516l-0.465-0.203c-0.892-0.402-1.656-0.857-1.656-1.948c0-1.183,1-1.938,2.132-1.938
	c0.849,0,1.563,0.435,1.97,1.183L614.789,196.637z"/>
<path fill="#050508" d="M624.471,196.637c-0.304-0.524-0.667-0.828-1.312-0.828c-0.677,0-1.266,0.485-1.266,1.183
	c0,0.656,0.68,0.959,1.192,1.191l0.505,0.223c0.989,0.437,1.828,0.932,1.828,2.144c0,1.334-1.07,2.354-2.394,2.354
	c-1.226,0-2.133-0.787-2.374-1.972l0.827-0.229c0.109,0.775,0.707,1.414,1.523,1.414c0.818,0,1.565-0.627,1.565-1.484
	c0-0.891-0.697-1.191-1.404-1.516l-0.464-0.203c-0.892-0.402-1.657-0.857-1.657-1.948c0-1.183,1-1.938,2.132-1.938
	c0.852,0,1.565,0.435,1.973,1.183L624.471,196.637z"/>
<path fill="#050508" d="M631.838,200.606l-0.919,2.162h-0.93l3.516-7.98l3.424,7.98h-0.938l-0.898-2.162H631.838z M633.484,196.769
	l-1.306,3.051h2.575L633.484,196.769z"/>
<path fill="#050508" d="M641.842,194.829l5.939,6.223v-5.898h0.849v7.959l-5.938-6.213v5.867h-0.852L641.842,194.829
	L641.842,194.829z"/>
<path fill="#050508" d="M654.248,195.153h1.435c1.145,0,2.07,0.15,2.973,0.918c0.866,0.748,1.263,1.769,1.263,2.897
	c0,1.108-0.404,2.091-1.242,2.838c-0.909,0.812-1.816,0.96-3.011,0.96h-1.414L654.248,195.153L654.248,195.153z M655.713,201.98
	c0.93,0,1.707-0.131,2.404-0.788c0.626-0.586,0.949-1.384,0.949-2.229c0-0.868-0.333-1.707-0.99-2.282
	c-0.696-0.615-1.464-0.734-2.363-0.734h-0.616v6.039L655.713,201.98L655.713,201.98z"/>
<path fill="#050508" d="M665.979,202.769h-0.849v-7.615h1.104c1.441,0,2.785,0.383,2.785,2.101c0,1.172-0.735,2-1.906,2.102
	l2.424,3.414h-1.04l-2.304-3.344h-0.213L665.979,202.769L665.979,202.769z M665.979,198.678h0.266c0.96,0,1.93-0.183,1.93-1.364
	c0-1.252-0.92-1.373-1.938-1.373h-0.253v2.737H665.979z"/>
<path fill="#050508" d="M682.195,198.971c0,2.19-1.798,3.929-3.973,3.929c-2.172,0-3.97-1.736-3.97-3.929
	c0-2.183,1.798-3.95,3.97-3.95c0.406,0,0.801,0.062,1.168,0.176c0.373,0.115,0.726,0.284,1.042,0.498
	c0.637,0.426,1.145,1.029,1.446,1.738C682.083,197.905,682.195,198.425,682.195,198.971z M675.104,198.96
	c0,1.718,1.396,3.152,3.121,3.152c1.729,0,3.121-1.438,3.121-3.152c0-0.693-0.221-1.338-0.599-1.86s-0.913-0.925-1.539-1.133
	c-0.31-0.103-0.639-0.158-0.983-0.158C676.479,195.809,675.104,197.233,675.104,198.96z"/>
<path fill="#050508" d="M687.431,194.829l5.939,6.223v-5.898h0.849v7.959l-5.938-6.213v5.867h-0.852L687.431,194.829
	L687.431,194.829z"/>
<path fill="#050508" d="M700.706,202.769h-0.849v-7.615h0.849V202.769z"/>
<path fill="#050508" d="M65.646,270.076l2.941-7.28l2.941,7.28l2.387-6.812h1.097l-3.484,9.562l-2.941-7.316l-2.941,7.316
	l-3.484-9.562h1.097L65.646,270.076z"/>
<path fill="#050508" d="M81.905,272.355h-1.013v-9.089h1.314c1.724,0,3.327,0.458,3.327,2.509c0,1.396-0.88,2.387-2.278,2.508
	l2.893,4.072h-1.242l-2.749-3.988h-0.253L81.905,272.355L81.905,272.355z M81.905,267.474h0.313c1.145,0,2.302-0.217,2.302-1.628
	c0-1.494-1.097-1.641-2.314-1.641h-0.301V267.474z"/>
<path fill="#050508" d="M93.283,272.355h-1.012v-9.089h1.012V272.355z"/>
<path fill="#050508" d="M102.36,272.355h-1.013v-8.146h-2.194v-0.94h5.424v0.94h-2.218L102.36,272.355L102.36,272.355z"/>
<path fill="#050508" d="M112.846,272.355h-1.013v-8.146h-2.194v-0.94h5.424v0.94h-2.218L112.846,272.355L112.846,272.355z"/>
<path fill="#050508" d="M120.92,263.267h4.713v0.938h-3.701v2.701h3.592v0.938h-3.592v3.565h3.701v0.94h-4.713V263.267z"/>
<path fill="#050508" d="M132.239,262.881l7.088,7.426v-7.04h1.013v9.499l-7.088-7.414v7.004h-1.012v-9.475H132.239z"/>
<path fill="#050508" d="M160.697,271.076c-0.808,0.725-1.772,1.436-2.905,1.436c-1.386,0-2.652-1.036-2.652-2.48
	c0-1.521,1.097-2.242,2.23-2.99l0.108-0.071c-0.41-0.565-0.904-1.183-0.904-1.931c0-1.146,0.855-1.928,1.989-1.928
	c1.025,0,1.929,0.725,1.929,1.782c0,1.085-0.82,1.677-1.603,2.269l1.917,2.447l1.024-1.192l0.735,0.603l-1.157,1.352l1.543,1.988
	h-1.278L160.697,271.076z M157.635,268.004c-0.687,0.47-1.507,1.023-1.507,1.951c0,0.854,0.748,1.641,1.604,1.641
	c0.916,0,1.711-0.711,2.362-1.275l-2.025-2.604L157.635,268.004z M158.394,266.365c0.519-0.396,1.133-0.746,1.133-1.472
	c0-0.555-0.458-0.928-0.988-0.928c-0.555,0-1,0.435-1,1c0,0.458,0.301,0.796,0.554,1.155l0.217,0.304L158.394,266.365z"/>
<path fill="#050508" d="M178.33,272.355h-1.013v-9.089h1.495c0.783,0,1.591,0.022,2.254,0.481c0.675,0.471,1.024,1.267,1.024,2.072
	c0,0.734-0.301,1.481-0.868,1.951c-0.615,0.508-1.398,0.604-2.158,0.604h-0.735L178.33,272.355L178.33,272.355z M178.33,267.438
	h0.675c1.121,0,2.074-0.338,2.074-1.64c0-1.481-1.193-1.593-2.375-1.593h-0.374V267.438L178.33,267.438z"/>
<path fill="#050508" d="M189.214,272.355h-1.013v-9.089h1.314c1.724,0,3.327,0.458,3.327,2.509c0,1.396-0.88,2.387-2.278,2.508
	l2.893,4.072h-1.242l-2.749-3.988h-0.253L189.214,272.355L189.214,272.355z M189.214,267.474h0.313c1.145,0,2.302-0.217,2.302-1.628
	c0-1.494-1.097-1.641-2.314-1.641h-0.301V267.474L189.214,267.474z"/>
<path fill="#050508" d="M208.572,267.824c0,2.614-2.146,4.688-4.738,4.688c-2.591,0-4.737-2.073-4.737-4.688
	c0-1.039,0.342-1.998,0.917-2.776c0.432-0.586,0.996-1.069,1.646-1.406c0.653-0.338,1.393-0.528,2.174-0.528
	c0.907,0,1.759,0.258,2.483,0.705c0.564,0.349,1.051,0.812,1.427,1.354C208.265,265.926,208.571,266.839,208.572,267.824z
	 M200.11,267.811c0,2.051,1.664,3.764,3.725,3.764c2.062,0,3.725-1.713,3.725-3.764c0-0.809-0.252-1.562-0.685-2.179
	c-0.44-0.626-1.065-1.111-1.801-1.371c-0.386-0.138-0.803-0.211-1.239-0.211c-0.642,0-1.242,0.162-1.765,0.444
	c-0.381,0.205-0.721,0.479-1.006,0.799c-0.38,0.427-0.664,0.941-0.819,1.51C200.157,267.123,200.11,267.462,200.11,267.811z"/>
<path fill="#050508" d="M214.766,263.267h1.712c1.362,0,2.471,0.183,3.544,1.099c1.037,0.894,1.507,2.107,1.507,3.459
	c0,1.326-0.482,2.496-1.483,3.389c-1.085,0.965-2.169,1.146-3.592,1.146h-1.688V263.267L214.766,263.267z M216.514,271.414
	c1.109,0,2.037-0.155,2.869-0.939c0.747-0.697,1.133-1.65,1.133-2.664c0-1.035-0.398-2.035-1.181-2.724
	c-0.832-0.735-1.748-0.882-2.821-0.882h-0.735v7.209H216.514z"/>
<path fill="#050508" d="M228.748,268.679c0,0.675-0.024,1.446,0.397,2.024c0.398,0.556,1.169,0.867,1.833,0.867
	c0.651,0,1.362-0.303,1.784-0.809c0.482-0.579,0.446-1.375,0.446-2.086v-5.412h1.013v5.688c0,0.988-0.072,1.772-0.796,2.521
	c-0.626,0.676-1.531,1.036-2.447,1.036c-0.856,0-1.736-0.325-2.351-0.929c-0.796-0.76-0.892-1.592-0.892-2.629v-5.688h1.013V268.679
	L228.748,268.679z"/>
<path fill="#050508" d="M247.768,265.256c-0.724-0.748-1.724-1.206-2.773-1.206c-2.025,0-3.665,1.76-3.665,3.761
	s1.652,3.764,3.689,3.764c1.024,0,2.025-0.481,2.749-1.207v1.254c-0.784,0.565-1.748,0.894-2.712,0.894
	c-2.568,0-4.737-2.085-4.737-4.665c0-2.604,2.133-4.736,4.737-4.736c1.013,0,1.904,0.291,2.712,0.895V265.256z"/>
<path fill="#050508" d="M254.3,263.267h4.713v0.938h-3.701v2.701h3.592v0.938h-3.592v3.565h3.701v0.94H254.3V263.267z"/>
<path fill="#050508" d="M265.558,263.267h1.712c1.362,0,2.471,0.183,3.544,1.099c1.037,0.894,1.507,2.107,1.507,3.459
	c0,1.326-0.482,2.496-1.483,3.389c-1.084,0.965-2.169,1.146-3.592,1.146h-1.688V263.267z M267.306,271.414
	c1.109,0,2.037-0.155,2.869-0.939c0.747-0.697,1.133-1.65,1.133-2.664c0-1.035-0.397-2.035-1.181-2.724
	c-0.832-0.735-1.748-0.882-2.821-0.882h-0.735v7.209H267.306z"/>
<path fill="#050508" d="M287.084,263.267h1.495c1.652,0,3.038,0.604,3.038,2.459c0,0.735-0.277,1.362-0.892,1.771
	c1.085,0.267,1.724,1.242,1.724,2.326c0,1.81-1.458,2.53-3.254,2.53h-2.11L287.084,263.267L287.084,263.267z M288.097,267.269h0.386
	c1.145,0,2.122-0.133,2.122-1.543c0-1.374-0.868-1.521-2.109-1.521h-0.398L288.097,267.269L288.097,267.269z M288.097,271.414h1.013
	c1.133,0,2.326-0.276,2.326-1.662c0-1.41-1.35-1.615-2.459-1.615h-0.88V271.414L288.097,271.414z"/>
<path fill="#050508" d="M297.933,263.267h1.169l2.314,4.052l2.314-4.052h1.169l-2.978,5.185v3.904h-1.013v-3.904L297.933,263.267z"
	/>
<path fill="#050508" d="M319.254,263.267h1.712c1.362,0,2.472,0.183,3.544,1.099c1.037,0.894,1.507,2.107,1.507,3.459
	c0,1.326-0.479,2.496-1.48,3.389c-1.085,0.965-2.169,1.146-3.592,1.146h-1.688L319.254,263.267L319.254,263.267z M321.002,271.414
	c1.109,0,2.037-0.155,2.869-0.939c0.747-0.697,1.133-1.65,1.133-2.664c0-1.035-0.396-2.035-1.181-2.724
	c-0.832-0.735-1.748-0.882-2.821-0.882h-0.735v7.209H321.002z"/>
<path fill="#050508" d="M333.61,269.777l-1.1,2.578h-1.106l4.192-9.521l4.086,9.521h-1.118l-1.073-2.578H333.61z M335.575,265.197
	l-1.558,3.642h3.074L335.575,265.197z"/>
<path fill="#050508" d="M345.554,262.881l7.088,7.426v-7.04h1.015v9.499l-7.088-7.414v7.004h-1.015V262.881z"/>
<path fill="#050508" d="M368.817,267.785c0.021,1.229-0.108,2.242-0.94,3.207c-0.831,0.965-2.098,1.52-3.363,1.52
	c-2.556,0-4.677-2.121-4.677-4.677c0-2.604,2.121-4.728,4.737-4.728c1.591,0,2.881,0.713,3.846,1.965l-0.735,0.688
	c-0.76-1.073-1.781-1.712-3.122-1.712c-2.07,0-3.713,1.748-3.713,3.797c0,0.965,0.389,1.881,1.062,2.566
	c0.663,0.662,1.628,1.156,2.58,1.156c1.579,0,3.242-1.156,3.242-2.845h-2.7v-0.94h3.783V267.785L368.817,267.785z"/>
<path fill="#050508" d="M375.071,263.267h4.714v0.938h-3.701v2.701h3.592v0.938h-3.592v3.565h3.701v0.94h-4.714V263.267z"/>
<path fill="#050508" d="M387.342,272.355h-1.013v-9.089h1.312c1.727,0,3.326,0.458,3.326,2.509c0,1.396-0.88,2.387-2.274,2.508
	l2.893,4.072h-1.241l-2.749-3.988h-0.253V272.355L387.342,272.355z M387.342,267.474h0.313c1.146,0,2.303-0.217,2.303-1.628
	c0-1.494-1.098-1.641-2.314-1.641h-0.302V267.474z"/>
<path fill="#050508" d="M407.398,262.746l3.303,7.633l3.312-7.633l1.847,9.606h-1.036l-1.17-6.146h-0.023l-2.93,6.521l-2.917-6.521
	h-0.024l-1.169,6.146h-1.037L407.398,262.746z"/>
<path fill="#050508" d="M430.854,267.824c0,2.614-2.146,4.688-4.734,4.688s-4.737-2.073-4.737-4.688
	c0-2.604,2.146-4.713,4.737-4.713c0.324,0,0.642,0.032,0.947,0.096c0.693,0.144,1.337,0.438,1.888,0.851
	c0.521,0.39,0.96,0.884,1.285,1.449C430.629,266.189,430.854,266.98,430.854,267.824z M422.393,267.811
	c0,2.051,1.663,3.764,3.728,3.764c2.062,0,3.725-1.713,3.725-3.764c0-0.324-0.04-0.642-0.117-0.941
	c-0.151-0.604-0.448-1.147-0.854-1.594c-0.479-0.531-1.107-0.925-1.824-1.106c-0.296-0.076-0.605-0.117-0.93-0.117
	C424.032,264.05,422.393,265.75,422.393,267.811z"/>
<path fill="#050508" d="M438.036,268.679c0,0.675-0.023,1.446,0.396,2.024c0.397,0.556,1.171,0.867,1.832,0.867
	c0.65,0,1.362-0.303,1.784-0.809c0.482-0.579,0.446-1.375,0.446-2.086v-5.412h1.012v5.688c0,0.988-0.072,1.772-0.795,2.521
	c-0.627,0.676-1.531,1.036-2.447,1.036c-0.854,0-1.733-0.325-2.351-0.929c-0.796-0.76-0.894-1.592-0.894-2.629v-5.688h1.014
	L438.036,268.679L438.036,268.679z"/>
<path fill="#050508" d="M454.249,265.037c-0.362-0.627-0.796-0.987-1.567-0.987c-0.808,0-1.507,0.579-1.507,1.41
	c0,0.782,0.811,1.146,1.423,1.423l0.604,0.265c1.181,0.521,2.182,1.109,2.182,2.558c0,1.593-1.274,2.81-2.854,2.81
	c-1.459,0-2.544-0.938-2.833-2.353l0.985-0.274c0.136,0.929,0.847,1.688,1.82,1.688c0.979,0,1.868-0.748,1.868-1.771
	c0-1.061-0.832-1.422-1.676-1.809l-0.557-0.24c-1.062-0.482-1.978-1.025-1.978-2.327c0-1.41,1.193-2.313,2.544-2.313
	c1.013,0,1.868,0.521,2.351,1.41L454.249,265.037z"/>
<path fill="#050508" d="M461.685,263.267h4.717v0.938H462.7v2.701h3.592v0.938H462.7v3.565h3.701v0.94h-4.717V263.267z"/>
<path fill="#050508" d="M486.588,271.076c-0.808,0.725-1.771,1.436-2.905,1.436c-1.387,0-2.649-1.036-2.649-2.48
	c0-1.521,1.098-2.242,2.229-2.99l0.108-0.071c-0.41-0.565-0.904-1.183-0.904-1.931c0-1.146,0.856-1.928,1.989-1.928
	c1.024,0,1.929,0.725,1.929,1.782c0,1.085-0.816,1.677-1.604,2.269l1.917,2.447l1.021-1.192l0.735,0.603l-1.157,1.352l1.543,1.988
	h-1.274L486.588,271.076z M483.526,268.004c-0.688,0.47-1.51,1.023-1.51,1.951c0,0.854,0.747,1.641,1.604,1.641
	c0.916,0,1.712-0.711,2.363-1.275l-2.025-2.604L483.526,268.004z M484.285,266.365c0.519-0.396,1.134-0.746,1.134-1.472
	c0-0.555-0.459-0.928-0.989-0.928c-0.554,0-1,0.435-1,1c0,0.458,0.304,0.796,0.558,1.155l0.217,0.304L484.285,266.365z"/>
<path fill="#050508" d="M503.208,263.267h1.712c1.362,0,2.471,0.183,3.544,1.099c1.037,0.894,1.507,2.107,1.507,3.459
	c0,1.326-0.479,2.496-1.479,3.389c-1.085,0.965-2.17,1.146-3.593,1.146h-1.688L503.208,263.267L503.208,263.267z M504.956,271.414
	c1.109,0,2.037-0.155,2.869-0.939c0.747-0.697,1.133-1.65,1.133-2.664c0-1.035-0.397-2.035-1.182-2.724
	c-0.831-0.735-1.747-0.882-2.82-0.882h-0.735v7.209H504.956z"/>
<path fill="#050508" d="M517.562,269.777l-1.099,2.578h-1.106l4.192-9.521l4.086,9.521h-1.121l-1.069-2.578H517.562z
	 M519.528,265.197l-1.558,3.642h3.073L519.528,265.197z"/>
<path fill="#050508" d="M529.508,262.881l7.088,7.426v-7.04h1.016v9.499l-7.089-7.414v7.004h-1.015V262.881L529.508,262.881z"/>
<path fill="#050508" d="M545.358,272.355h-1.016v-9.089h1.016V272.355z"/>
<path fill="#050508" d="M552.023,263.267h4.714v0.938h-3.701v2.701h3.592v0.938h-3.592v3.565h3.701v0.94h-4.714V263.267z"/>
<path fill="#050508" d="M564.293,271.414h2.507v0.938h-3.52v-9.089h1.013V271.414z"/>
<path fill="#050508" d="M572.621,263.267h4.714v0.938h-3.701v2.701h3.592v0.938h-3.592v3.565h3.701v0.94h-4.714V263.267z"/>
<path fill="#050508" d="M593.425,271.414h2.508v0.938h-3.521v-9.089h1.013V271.414z"/>
<path fill="#050508" d="M602.741,268.679c0,0.675-0.023,1.446,0.396,2.024c0.397,0.556,1.169,0.867,1.832,0.867
	c0.65,0,1.362-0.303,1.784-0.809c0.482-0.579,0.446-1.375,0.446-2.086v-5.412h1.012v5.688c0,0.988-0.072,1.772-0.795,2.521
	c-0.627,0.676-1.531,1.036-2.447,1.036c-0.854,0-1.733-0.325-2.351-0.929c-0.796-0.76-0.896-1.592-0.896-2.629v-5.688h1.016
	L602.741,268.679L602.741,268.679z"/>
<path fill="#050508" d="M615.843,272.355h-1.013v-9.089h1.495c0.783,0,1.591,0.022,2.254,0.481c0.675,0.471,1.024,1.267,1.024,2.072
	c0,0.734-0.304,1.481-0.868,1.951c-0.614,0.508-1.397,0.604-2.157,0.604h-0.735V272.355L615.843,272.355z M615.843,267.438h0.675
	c1.121,0,2.073-0.338,2.073-1.64c0-1.481-1.19-1.593-2.374-1.593h-0.374V267.438L615.843,267.438z"/>
<path fill="#050508" d="M626.727,272.355h-1.013v-9.089h1.495c0.783,0,1.591,0.022,2.254,0.481c0.675,0.471,1.024,1.267,1.024,2.072
	c0,0.734-0.304,1.481-0.867,1.951c-0.615,0.508-1.398,0.604-2.158,0.604h-0.735V272.355z M626.727,267.438h0.678
	c1.121,0,2.07-0.338,2.07-1.64c0-1.481-1.19-1.593-2.374-1.593h-0.374V267.438L626.727,267.438z"/>
<path fill="#050508" d="M637.635,272.355h-1.013v-9.089h1.013V272.355z"/>
<path fill="#050508" d="M191.239,244.283l2.592-6.933h1.097l-3.689,9.632l-3.688-9.632h1.097L191.239,244.283z"/>
<path fill="#050508" d="M201.773,246.443h-1.012v-9.09h1.012V246.443z"/>
<path fill="#050508" d="M212.562,239.125c-0.361-0.629-0.795-0.988-1.567-0.988c-0.808,0-1.507,0.579-1.507,1.41
	c0,0.783,0.808,1.146,1.422,1.423l0.603,0.267c1.181,0.52,2.182,1.107,2.182,2.555c0,1.594-1.278,2.811-2.857,2.811
	c-1.458,0-2.543-0.938-2.833-2.351l0.989-0.276c0.132,0.93,0.844,1.688,1.82,1.688s1.868-0.748,1.868-1.771
	c0-1.062-0.832-1.422-1.675-1.809l-0.555-0.24c-1.061-0.479-1.977-1.022-1.977-2.327c0-1.41,1.193-2.312,2.543-2.312
	c1.013,0,1.869,0.52,2.351,1.412L212.562,239.125z"/>
<path fill="#050508" d="M220.986,242.766c0,0.676-0.024,1.446,0.397,2.023c0.398,0.557,1.169,0.869,1.833,0.869
	c0.651,0,1.362-0.304,1.784-0.81c0.482-0.579,0.446-1.375,0.446-2.086v-5.412h1.013v5.688c0,0.988-0.072,1.771-0.796,2.521
	c-0.626,0.677-1.531,1.036-2.447,1.036c-0.856,0-1.736-0.325-2.351-0.928c-0.796-0.762-0.892-1.592-0.892-2.629v-5.688h1.013
	V242.766L220.986,242.766z"/>
<path fill="#050508" d="M234.438,243.863l-1.097,2.58h-1.109l4.195-9.521l4.086,9.521h-1.121l-1.073-2.58H234.438z M236.402,239.281
	l-1.555,3.642h3.074L236.402,239.281z"/>
<path fill="#050508" d="M247.334,245.502h2.507v0.939h-3.52v-9.091h1.013V245.502z"/>
<path fill="#050508" d="M264.196,237.354h1.712c1.362,0,2.471,0.182,3.544,1.098c1.037,0.895,1.507,2.108,1.507,3.461
	c0,1.326-0.482,2.494-1.483,3.388c-1.084,0.965-2.169,1.146-3.592,1.146h-1.688V237.354z M265.944,245.502
	c1.109,0,2.037-0.156,2.869-0.94c0.747-0.698,1.133-1.649,1.133-2.664c0-1.034-0.397-2.036-1.181-2.724
	c-0.832-0.735-1.748-0.88-2.821-0.88h-0.735v7.208H265.944z"/>
<path fill="#050508" d="M278.226,246.443h-1.012v-9.09h1.012V246.443z"/>
<path fill="#050508" d="M285.904,246.443h-1.013v-9.09h1.314c1.724,0,3.327,0.458,3.327,2.508c0,1.397-0.88,2.387-2.278,2.508
	l2.893,4.074h-1.242l-2.749-3.99h-0.253L285.904,246.443L285.904,246.443z M285.904,241.561h0.313c1.145,0,2.302-0.217,2.302-1.628
	c0-1.494-1.097-1.639-2.314-1.639h-0.301V241.561z"/>
<path fill="#050508" d="M296.245,237.354h4.713v0.94h-3.701v2.698h3.592v0.938h-3.592v3.567h3.701v0.938h-4.713V237.354z"/>
<path fill="#050508" d="M314.435,239.343c-0.724-0.748-1.724-1.206-2.771-1.206c-2.025,0-3.665,1.76-3.665,3.761
	c0,2.003,1.652,3.763,3.688,3.763c1.024,0,2.025-0.48,2.749-1.205v1.255c-0.781,0.565-1.748,0.892-2.712,0.892
	c-2.565,0-4.734-2.085-4.734-4.665c0-2.604,2.133-4.735,4.734-4.735c1.016,0,1.905,0.289,2.712,0.894L314.435,239.343
	L314.435,239.343z"/>
<path fill="#050508" d="M323.377,246.443h-1.013v-8.146h-2.194v-0.939h5.424v0.939h-2.218L323.377,246.443L323.377,246.443z"/>
<path fill="#050508" d="M332.489,246.443h-1.015v-9.09h1.015V246.443z"/>
<path fill="#050508" d="M348.171,241.908c0,2.615-2.146,4.688-4.738,4.688c-2.591,0-4.734-2.071-4.734-4.688
	c0-2.604,2.146-4.713,4.734-4.713c0.483,0,0.951,0.073,1.394,0.209c0.455,0.142,0.882,0.349,1.269,0.609
	c0.547,0.371,1.015,0.854,1.364,1.413C347.909,240.15,348.171,240.998,348.171,241.908z M339.708,241.897
	c0,2.052,1.664,3.763,3.725,3.763c2.062,0,3.728-1.711,3.728-3.763c0-0.729-0.206-1.413-0.565-1.993
	c-0.248-0.4-0.565-0.752-0.941-1.031c-0.348-0.26-0.739-0.459-1.166-0.584c-0.333-0.1-0.688-0.15-1.054-0.15
	C341.348,238.137,339.708,239.837,339.708,241.897z"/>
<path fill="#050508" d="M354.425,236.968l7.088,7.426v-7.04h1.016v9.499l-7.089-7.414v7.005h-1.015V236.968L354.425,236.968z"/>
<path fill="#050508" d="M377.772,237.354h1.492c1.651,0,3.037,0.604,3.037,2.459c0,0.735-0.274,1.362-0.892,1.771
	c1.085,0.266,1.724,1.24,1.724,2.326c0,1.809-1.459,2.531-3.255,2.531h-2.109L377.772,237.354L377.772,237.354z M378.785,241.355
	h0.386c1.146,0,2.122-0.133,2.122-1.543c0-1.374-0.868-1.519-2.11-1.519h-0.396L378.785,241.355L378.785,241.355z M378.785,245.502
	h1.013c1.133,0,2.326-0.277,2.326-1.663c0-1.41-1.35-1.615-2.459-1.615h-0.88V245.502L378.785,245.502z"/>
<path fill="#050508" d="M388.62,237.354h1.169l2.312,4.051l2.314-4.051h1.169l-2.977,5.186v3.904h-1.016v-3.904L388.62,237.354z"/>
<path fill="#050508" d="M416.873,239.343c-0.724-0.748-1.724-1.206-2.772-1.206c-2.022,0-3.665,1.76-3.665,3.761
	c0,2.003,1.651,3.763,3.688,3.763c1.025,0,2.025-0.48,2.749-1.205v1.255c-0.784,0.565-1.748,0.892-2.713,0.892
	c-2.567,0-4.737-2.085-4.737-4.665c0-2.604,2.134-4.735,4.737-4.735c1.013,0,1.902,0.289,2.713,0.894V239.343L416.873,239.343z"/>
<path fill="#050508" d="M429.118,241.042v-3.688h1.013v9.09h-1.013v-4.459h-4.653v4.459h-1.012v-9.09h1.012v3.688H429.118z"/>
<path fill="#050508" d="M437.845,246.443h-1.013v-9.09h1.314c1.724,0,3.323,0.458,3.323,2.508c0,1.397-0.88,2.387-2.274,2.508
	l2.893,4.074h-1.241l-2.749-3.99h-0.253V246.443L437.845,246.443z M437.845,241.561h0.313c1.146,0,2.303-0.217,2.303-1.628
	c0-1.494-1.098-1.639-2.312-1.639h-0.305V241.561z"/>
<path fill="#050508" d="M449.223,246.443h-1.013v-9.09h1.013V246.443z"/>
<path fill="#050508" d="M460.011,239.125c-0.359-0.629-0.796-0.988-1.564-0.988c-0.811,0-1.509,0.579-1.509,1.41
	c0,0.783,0.81,1.146,1.425,1.423l0.603,0.267c1.182,0.52,2.184,1.107,2.184,2.555c0,1.594-1.276,2.811-2.855,2.811
	c-1.459,0-2.544-0.938-2.833-2.351l0.988-0.276c0.133,0.93,0.844,1.688,1.817,1.688c0.979,0,1.868-0.748,1.868-1.771
	c0-1.062-0.832-1.422-1.676-1.809l-0.554-0.24c-1.062-0.479-1.979-1.022-1.979-2.327c0-1.41,1.193-2.312,2.544-2.312
	c1.016,0,1.868,0.52,2.354,1.412L460.011,239.125z"/>
<path fill="#050508" d="M477.162,236.835l3.303,7.631l3.315-7.631l1.844,9.606h-1.036l-1.17-6.146h-0.023l-2.93,6.521l-2.917-6.521
	h-0.021l-1.171,6.146h-1.035L477.162,236.835z"/>
<path fill="#050508" d="M492.638,246.443h-1.013v-9.09h1.013V246.443z"/>
<path fill="#050508" d="M500.315,245.502h2.507v0.939h-3.521v-9.091h1.016L500.315,245.502L500.315,245.502z"/>
<path fill="#050508" d="M513.525,237.354h1.359l-4.267,4.23l4.411,4.857h-1.398l-3.725-4.173l-0.253,0.255v3.918h-1.016v-9.091
	h1.016v3.896L513.525,237.354z"/>
<path fill="#050508" d="M242.771,420.212l-0.738,1.858h-2.952l4.115-10.699h3.037l4.03,10.699h-2.966l-0.695-1.858H242.771z
	 M244.715,414.679h-0.029l-1.149,3.405h2.313L244.715,414.679z"/>
<path fill="#050508" d="M257.461,419.716h3.335v2.354h-6.116v-10.699h2.781V419.716z"/>
<path fill="#050508" d="M265.253,422.07v-10.699h3.973c1.902,0,3.179,0.737,3.179,2.78c0,0.967-0.312,1.746-1.178,2.187v0.027
	c1.533,0.198,2.186,1.235,2.186,2.726c0,2.242-1.916,2.979-3.874,2.979H265.253L265.253,422.07z M268.035,415.572h0.312
	c0.738,0,1.504-0.13,1.504-1.036c0-0.979-0.866-1.036-1.618-1.036h-0.199L268.035,415.572L268.035,415.572z M268.035,419.94h0.355
	c0.823,0,2.214,0.043,2.214-1.135c0-1.291-1.377-1.164-2.285-1.164h-0.284V419.94z"/>
<path fill="#050508" d="M287.691,411.371v6.019c0,1.377-0.057,2.737-1.121,3.773c-0.894,0.88-2.299,1.191-3.548,1.191
	s-2.653-0.312-3.547-1.191c-1.064-1.036-1.121-2.398-1.121-3.773v-6.019h2.781v5.634c0,1.393,0.099,2.909,1.887,2.909
	s1.888-1.521,1.888-2.909v-5.634H287.691z"/>
<path fill="#050508" d="M294.179,411.371h2.739l2.171,5.72l2.299-5.72h2.767l1.618,10.699h-2.781l-0.78-6.158h-0.029l-2.568,6.158
	h-1.107l-2.455-6.158h-0.028l-0.894,6.158h-2.767L294.179,411.371z"/>
<path fill="#050508" d="M326.566,414.962c-0.568-0.767-1.49-1.179-2.441-1.179c-1.703,0-2.853,1.307-2.853,2.967
	c0,1.688,1.161,2.908,2.895,2.908c0.908,0,1.816-0.438,2.398-1.136v3.334c-0.925,0.285-1.592,0.498-2.455,0.498
	c-1.49,0-2.909-0.567-4.019-1.575c-1.178-1.063-1.717-2.455-1.717-4.046c0-1.461,0.553-2.864,1.575-3.916
	c1.05-1.077,2.565-1.729,4.073-1.729c0.894,0,1.717,0.198,2.54,0.539L326.566,414.962L326.566,414.962z"/>
<path fill="#050508" d="M343.129,416.522c0,3.464-2.48,5.902-5.917,5.902c-3.434,0-5.917-2.438-5.917-5.902
	c0-3.233,2.838-5.506,5.917-5.506c1.062,0,2.091,0.271,2.988,0.754c0.675,0.363,1.273,0.854,1.752,1.438
	C342.683,414.106,343.129,415.24,343.129,416.522z M334.189,416.537c0,1.845,1.359,3.19,3.021,3.19c1.66,0,3.022-1.349,3.022-3.19
	c0-0.651-0.269-1.28-0.708-1.776c-0.456-0.517-1.102-0.892-1.828-1.009c-0.158-0.024-0.321-0.039-0.486-0.039
	C335.551,413.713,334.189,415.062,334.189,416.537z"/>
<path fill="#050508" d="M349.148,411.371h2.735l2.172,5.72l2.302-5.72h2.768l1.617,10.699h-2.781l-0.78-6.158h-0.025l-2.568,6.158
	h-1.104l-2.455-6.158h-0.028l-0.896,6.158h-2.767L349.148,411.371z"/>
<path fill="#050508" d="M368.252,422.07h-2.781v-10.699h2.781V422.07z"/>
<path fill="#050508" d="M373.618,411.371h2.781l5.095,6.542h0.028v-6.542h2.778v10.699h-2.778l-5.098-6.556h-0.025v6.556h-2.781
	V411.371L373.618,411.371z"/>
<path fill="#050508" d="M400.341,416.097c-0.028,1.562-0.142,2.896-1.092,4.229c-1.051,1.461-2.626,2.101-4.414,2.101
	c-3.363,0-5.704-2.283-5.704-5.646c0-3.479,2.355-5.762,5.804-5.762c2.199,0,3.902,0.992,4.825,2.992l-2.64,1.107
	c-0.383-1.021-1.192-1.703-2.313-1.703c-1.83,0-2.778,1.745-2.778,3.377c0,1.661,0.99,3.352,2.821,3.352
	c1.206,0,2.129-0.625,2.242-1.858h-2.271v-2.187L400.341,416.097L400.341,416.097z"/>
<path fill="#050508" d="M421.745,419.716v2.354h-8.599l4.367-4.755c0.625-0.682,1.224-1.646,1.224-2.625
	c0-0.683-0.482-1.392-1.224-1.392c-0.752,0-1.163,0.581-1.163,1.308c0,0.143,0.017,0.298,0.042,0.453h-3.062
	c0.086-2.455,1.646-4.114,4.173-4.114c2.242,0,4.129,1.477,4.129,3.804c0,1.532-0.639,2.428-1.729,3.42l-1.66,1.547H421.745
	L421.745,419.716z"/>
<path fill="#050508" d="M435.37,416.722c0,2.781-1.348,5.775-4.541,5.775c-3.192,0-4.541-2.994-4.541-5.775
	c0-2.779,1.362-5.775,4.541-5.775c0.717,0,1.342,0.152,1.879,0.422c0.63,0.312,1.141,0.787,1.54,1.361
	c0.343,0.492,0.604,1.06,0.787,1.66C435.262,415.136,435.37,415.937,435.37,416.722z M429.056,416.707
	c0,1.036,0.344,3.335,1.773,3.335c1.434,0,1.771-2.3,1.771-3.335c0-0.39-0.048-0.951-0.184-1.502s-0.358-1.092-0.709-1.437
	c-0.233-0.229-0.521-0.369-0.881-0.369C429.396,413.399,429.056,415.671,429.056,416.707z"/>
<path fill="#050508" d="M441.532,413.728v-2.354h4.312v10.699h-2.778v-8.345H441.532L441.532,413.728z"/>
<path fill="#050508" d="M454.816,413.728v-2.354h4.312v10.699h-2.781v-8.345H454.816L454.816,413.728z"/>
</svg>
