<?xml version="1.0" encoding="utf-8"?>
<!-- Generator: Adobe Illustrator 15.0.0, SVG Export Plug-In . SVG Version: 6.00 Build 0)  -->
<!DOCTYPE svg PUBLIC "-//W3C//DTD SVG 1.1//EN" "http://www.w3.org/Graphics/SVG/1.1/DTD/svg11.dtd">
<svg version="1.1" id="Layer_1" xmlns="http://www.w3.org/2000/svg" xmlns:xlink="http://www.w3.org/1999/xlink" x="0px" y="0px"
	 width="58px" height="152px" viewBox="0 0 58 152" enable-background="new 0 0 58 152" xml:space="preserve">
<path fill="#030000" d="M58.146,68.757l-13.301-4.433v-47.44C44.846,7.56,37.286,0,27.961,0S11.078,7.56,11.078,16.885v17.346
	L0,29.995c0,0,8.036,11.344,9.928,18.905c0.578,2.314,0.933,4.804,1.15,7.146v79.537c0,9.326,7.558,16.885,16.883,16.885
	s16.885-7.559,16.885-16.885V93.827c0.588-4.026,1.986-9.47,5.262-9.47c5.199,0,3.311,19.854,3.311,19.854L58.146,68.757z"/>
<path fill="#FFFFFF" d="M22.691,115.837c0,1.802-1.463,3.267-3.266,3.267l0,0c-1.805,0-3.268-1.465-3.268-3.267V57.851
	c0-1.803,1.463-3.266,3.268-3.266l0,0c1.803,0,3.266,1.463,3.266,3.266V115.837z"/>
<path fill="#FFFFFF" d="M19.425,125.637c0.617,0,1.201,0.137,1.725,0.381c0.697,0.325,1.286,0.842,1.702,1.48
	c0.415,0.641,0.656,1.402,0.656,2.223c0,0.666-0.16,1.297-0.444,1.854c-0.336,0.658-0.845,1.214-1.468,1.605
	c-0.629,0.396-1.373,0.623-2.171,0.623c-0.7,0-1.359-0.177-1.936-0.486c-0.688-0.371-1.255-0.933-1.634-1.612
	c-0.327-0.588-0.513-1.265-0.513-1.983c0-0.826,0.246-1.597,0.669-2.238c0.411-0.625,0.989-1.131,1.671-1.455
	C18.21,125.775,18.801,125.637,19.425,125.637z"/>
<path fill="#FFFFFF" d="M30.857,125.23c0,1.576-1.277,2.854-2.858,2.854c-1.577,0-2.856-1.277-2.856-2.854
	c0-1.58,1.279-2.861,2.856-2.861C29.58,122.369,30.857,123.65,30.857,125.23z"/>
</svg>
