<?xml version="1.0" encoding="utf-8"?>
<!-- Generator: Adobe Illustrator 15.0.0, SVG Export Plug-In . SVG Version: 6.00 Build 0)  -->
<!DOCTYPE svg PUBLIC "-//W3C//DTD SVG 1.1//EN" "http://www.w3.org/Graphics/SVG/1.1/DTD/svg11.dtd">
<svg version="1.1" id="Layer_1" xmlns="http://www.w3.org/2000/svg" xmlns:xlink="http://www.w3.org/1999/xlink" x="0px" y="0px"
	 width="82px" height="172px" viewBox="0 0 82 172" enable-background="new 0 0 82 172" xml:space="preserve">
<path fill="#030000" d="M59.475,91.566V16.885C59.475,7.56,51.916,0,42.59,0c-9.324,0-16.883,7.56-16.883,16.885v106.809
	l-0.178-0.686l-20.328,9.926L0,146.645l11.82,25.527c0,0-0.947-21.746,4.725-26c5.674-4.254,7.092-3.783,11.82-0.473
	c0.689,0.482,1.263,0.887,1.747,1.23c3.088,3.396,7.526,5.538,12.478,5.538c9.326,0,16.885-7.559,16.885-16.885v-7.56l0.088,0.186
	c0,0,1.894-17.021,7.564-25.059c5.674-8.034,14.654-17.96,14.654-17.96L59.475,91.566z"/>
<path fill="#FFFFFF" d="M53.184,130.008c0,1.805-1.461,3.27-3.264,3.27l0,0c-1.805,0-3.268-1.465-3.268-3.27v-12.25
	c0-1.803,1.463-3.266,3.268-3.266l0,0c1.803,0,3.264,1.463,3.264,3.266V130.008z"/>
</svg>
