<?xml version="1.0" encoding="utf-8"?>
<!-- Generator: Adobe Illustrator 15.0.0, SVG Export Plug-In . SVG Version: 6.00 Build 0)  -->
<!DOCTYPE svg PUBLIC "-//W3C//DTD SVG 1.1//EN" "http://www.w3.org/Graphics/SVG/1.1/DTD/svg11.dtd">
<svg version="1.1" id="Layer_1" xmlns="http://www.w3.org/2000/svg" xmlns:xlink="http://www.w3.org/1999/xlink" x="0px" y="0px"
	 width="34px" height="152px" viewBox="0 0 34 152" enable-background="new 0 0 34 152" xml:space="preserve">
<path fill="#030000" d="M33.77,135.586c0,9.322-7.561,16.885-16.885,16.885l0,0C7.56,152.471,0,144.908,0,135.586V16.885
	C0,7.559,7.56,0,16.885,0l0,0C26.209,0,33.77,7.559,33.77,16.885V135.586z"/>
<path fill="#FFFFFF" d="M24.732,139.789c0,2.254-1.828,4.082-4.084,4.082l0,0c-2.256,0-4.083-1.828-4.083-4.082l0,0
	c0-2.258,1.827-4.084,4.083-4.084l0,0C22.904,135.705,24.732,137.531,24.732,139.789L24.732,139.789z"/>
<path fill="#FFFFFF" d="M10.85,137.338c0,1.803-1.464,3.268-3.268,3.268l0,0c-1.803,0-3.266-1.465-3.266-3.268l0,0
	c0-1.803,1.463-3.268,3.266-3.268l0,0C9.386,134.07,10.85,135.535,10.85,137.338L10.85,137.338z"/>
<path fill="#FFFFFF" d="M23.493,109.057c-1.935,0-3.5-1.567-3.5-3.5V51.856c0-1.933,1.565-3.5,3.5-3.5c1.933,0,3.5,1.567,3.5,3.5
	v53.699C26.993,107.488,25.425,109.057,23.493,109.057z"/>
</svg>
