<?xml version="1.0" encoding="utf-8"?>
<!-- Generator: Adobe Illustrator 15.0.0, SVG Export Plug-In . SVG Version: 6.00 Build 0)  -->
<!DOCTYPE svg PUBLIC "-//W3C//DTD SVG 1.1//EN" "http://www.w3.org/Graphics/SVG/1.1/DTD/svg11.dtd">
<svg version="1.1" id="Layer_1" xmlns="http://www.w3.org/2000/svg" xmlns:xlink="http://www.w3.org/1999/xlink" x="0px" y="0px"
	 width="299px" height="249px" viewBox="0 0 299 249" enable-background="new 0 0 299 249" xml:space="preserve">
<path fill="#030000" d="M248.078,5.884c-36.689-14.739-77.771-0.84-98.517,31.125C128.817,5.044,87.734-8.855,51.043,5.884
	C9.354,22.632-10.864,70.009,5.887,111.697c6.893,17.159,31.781,43.329,59.525,68.887v-10.555c0-1.803,2.179-2.668,3.984-2.668
	c1.803,0,3.266,1.463,3.266,3.266v16.518c12.065,10.912,23.575,20.854,34.625,30.135v-2.133c0-1.705,2.077-2.494,3.758-2.494
	c1.683,0,3.045,1.381,3.045,3.084v7.225c14.001,11.639,23.156,18.977,29.071,23.633v-8.812c0-1.935,3.433-3.5,5.366-3.5
	c1.933,0,5.134,1.565,5.134,3.5v10.5c6.5-5.104,20.104-15.796,38.875-31.625v-10.128c0-1.803,2.455-4.075,4.26-4.075
	c1.804,0,3.265,1.463,3.265,3.267v4.581c37.467-31.974,83.551-74.646,93.176-98.604C309.986,70.009,289.768,22.632,248.078,5.884z"
	/>
</svg>
