<?xml version="1.0" encoding="utf-8"?>
<!-- Generator: Adobe Illustrator 15.0.0, SVG Export Plug-In  -->
<!DOCTYPE svg PUBLIC "-//W3C//DTD SVG 1.0//EN" "http://www.w3.org/TR/2001/REC-SVG-20010904/DTD/svg10.dtd" [
	<!ENTITY ns_flows "http://ns.adobe.com/Flows/1.0/">
]>
<svg version="1.0"
	 xmlns="http://www.w3.org/2000/svg" xmlns:xlink="http://www.w3.org/1999/xlink" xmlns:a="http://ns.adobe.com/AdobeSVGViewerExtensions/3.0/"
	 x="0px" y="0px" width="277px" height="222px" viewBox="0 0.376 277 222"
	 overflow="visible" enable-background="new 0 0.376 277 222" xml:space="preserve">
<defs>
</defs>
<path fill="#FFFFFF" d="M69.628,146.421c-1.869-1.633-2.062-4.469-0.432-6.338l0,0c1.631-1.869,4.471-2.062,6.338-0.43
	l23.689,20.671c1.869,1.632,2.062,4.471,0.432,6.339l0,0c-1.631,1.869-4.471,2.061-6.336,0.432L69.628,146.421z"/>
<path fill="#FFFFFF" d="M179.962,169.651c1.213-1.389,3.314-1.531,4.705-0.32l0,0c1.387,1.212,1.531,3.316,0.318,4.707
	l-15.348,17.59c-1.211,1.383-3.316,1.527-4.705,0.316l0,0c-1.388-1.211-1.529-3.318-0.318-4.707L179.962,169.651z"/>
<path fill="#FFFFFF" d="M259.138,58.199c0,3.383-2.74,6.126-6.123,6.126c-3.387,0-6.127-2.743-6.127-6.126s2.74-6.124,6.127-6.124
	C256.398,52.075,259.138,54.816,259.138,58.199z"/>
<ellipse fill="#FFFFFF" cx="11.407" cy="83.635" rx="5.29" ry="5.604"/>
<path fill="#FFFFFF" d="M66.111,134.203c0,0.614-0.094,1.206-0.267,1.759c-0.198,0.639-0.502,1.226-0.89,1.738
	c-0.605,0.803-1.415,1.425-2.346,1.778c-0.558,0.213-1.16,0.328-1.787,0.329c-0.967-0.001-1.874-0.275-2.653-0.755
	c-0.78-0.48-1.434-1.166-1.895-1.986c-0.228-0.406-0.409-0.845-0.535-1.309c-0.134-0.494-0.206-1.016-0.206-1.555
	c0-1.16,0.332-2.237,0.901-3.131c0.525-0.825,1.253-1.493,2.107-1.927c0.69-0.35,1.463-0.546,2.28-0.546
	c0.935,0,1.812,0.257,2.575,0.708c0.857,0.506,1.567,1.258,2.045,2.165C65.868,132.28,66.111,133.212,66.111,134.203z"/>
<path fill="#FFFFFF" d="M269.662,82.932c-0.438,0-0.883-0.064-1.324-0.2c-2.375-0.73-3.709-3.248-2.979-5.623
	c1.863-6.066,2.809-12.361,2.809-18.709c0-36.646-28.854-49.646-29.146-49.774c-2.278-0.993-3.32-3.645-2.327-5.923
	s3.645-3.32,5.923-2.327c1.411,0.615,34.55,15.547,34.55,58.024c0,7.245-1.078,14.429-3.207,21.353
	C273.367,81.688,271.585,82.932,269.662,82.932z"/>
<path fill="#FFFFFF" d="M12.39,31.397c-0.592,0-1.193-0.117-1.771-0.365c-2.284-0.979-3.342-3.625-2.363-5.909
	c5.412-12.625,18.421-20.539,18.972-20.87c2.132-1.277,4.896-0.587,6.174,1.543c1.277,2.129,0.589,4.89-1.538,6.17
	c-0.158,0.096-11.099,6.814-15.336,16.702C15.797,30.375,14.136,31.397,12.39,31.397z"/>
<path fill="#FFFFFF" d="M150.282,31.051c-0.592,0-1.192-0.117-1.771-0.365c-2.284-0.979-3.343-3.625-2.363-5.909
	c5.41-12.625,18.421-20.54,18.972-20.871c2.134-1.278,4.896-0.587,6.175,1.543c1.277,2.129,0.588,4.891-1.539,6.171
	c-0.16,0.097-11.099,6.815-15.336,16.701C153.689,30.029,152.027,31.051,150.282,31.051z"/>
<path fill="#FFFFFF" d="M5.755,70.609c-2.083,0-3.953-1.454-4.399-3.574c-3.495-16.596,0.811-25.688,1.313-26.67
	c1.133-2.212,3.844-3.087,6.056-1.957c2.197,1.125,3.076,3.807,1.979,6.011c-0.11,0.237-3.348,7.433-0.542,20.761
	c0.512,2.432-1.044,4.818-3.476,5.331C6.374,70.577,6.062,70.609,5.755,70.609z"/>
<path fill="#FFFFFF" d="M141.529,222.869c-0.814,0-1.631-0.282-2.293-0.857c-1.46-1.268-1.616-3.479-0.348-4.938l14.654-16.872
	c1.269-1.46,3.479-1.614,4.938-0.348c1.459,1.268,1.615,3.479,0.348,4.938l-14.654,16.872
	C143.48,222.461,142.507,222.869,141.529,222.869z"/>
</svg>
