<?xml version="1.0" encoding="utf-8"?>
<!-- Generator: Adobe Illustrator 15.0.0, SVG Export Plug-In . SVG Version: 6.00 Build 0)  -->
<!DOCTYPE svg PUBLIC "-//W3C//DTD SVG 1.1//EN" "http://www.w3.org/Graphics/SVG/1.1/DTD/svg11.dtd">
<svg version="1.1" id="Layer_1" xmlns="http://www.w3.org/2000/svg" xmlns:xlink="http://www.w3.org/1999/xlink" x="0px" y="0px"
	 width="394px" height="104px" viewBox="0 0 394 104" enable-background="new 0 0 394 104" xml:space="preserve">
<path fill="#F15D22" d="M78.265,103.688c-0.854-0.853-1.47-1.49-1.848-1.918c-0.379-0.426-0.805-0.922-1.277-1.49
	c-0.476-0.568-1.066-1.396-1.775-2.485c-0.711-1.088-1.825-2.721-3.338-4.899c-1.801-2.65-3.387-5.043-4.759-7.174
	c-1.374-2.131-2.771-4.236-4.19-6.32c-1.42-2.082-2.961-4.189-4.616-6.32c-1.657-2.131-3.622-4.521-5.895-7.173
	c-1.896-2.179-3.955-4.214-6.179-6.107c-2.226-1.894-4.569-3.075-7.031-3.552c-1.8-0.377-3.173-0.566-4.119-0.566
	c-0.853,0-1.942-0.048-3.267-0.144c0,6.155,0,11.505,0,16.051c0,4.545,0.047,8.38,0.143,11.505c0.093,3.031,0.188,5.635,0.283,7.812
	c0.094,2.179,0.615,3.977,1.562,5.396c0.757,1.231,2.225,2.485,4.403,3.764c2.177,1.279,5.206,2.014,9.091,2.203v1.42H0v-1.42
	c2.366-0.379,4.639-0.946,6.818-1.705c2.178-0.758,3.881-1.894,5.113-3.409c0.473-0.567,0.852-1.421,1.137-2.558
	c0.283-1.136,0.496-2.414,0.639-3.834c0.143-1.421,0.26-2.935,0.355-4.546c0.093-1.608,0.142-3.172,0.142-4.688
	c0-1.325,0.022-3.125,0.071-5.397c0.047-2.271,0.094-4.758,0.143-7.457c0.046-2.697,0.07-5.469,0.07-8.31c0-2.935,0-5.683,0-8.238
	V24.431c0-1.704-0.024-3.432-0.07-5.185c-0.049-1.751-0.143-3.409-0.285-4.972c-0.142-1.562-0.379-2.982-0.71-4.261
	c-0.333-1.278-0.78-2.202-1.349-2.77C10.653,5.73,9.066,4.712,7.315,4.19C5.562,3.67,3.409,3.219,0.852,2.84V1.42
	c0.757,0,2.698,0,5.823,0c3.219,0,6.865-0.021,10.938-0.07c4.07-0.047,8.143-0.071,12.215-0.071c4.07,0,7.387,0,9.943,0
	c6.343,0,11.978,0.19,16.902,0.568c4.923,0.379,9.421,1.657,13.494,3.835c4.165,2.179,7.528,5.138,10.085,8.877
	c2.557,3.742,3.834,8.451,3.834,14.133c0,3.505-0.639,6.654-1.917,9.446c-1.278,2.794-2.983,5.255-5.113,7.386
	c-2.13,2.131-4.616,3.955-7.457,5.469c-2.841,1.516-5.823,2.794-8.948,3.835v0.426c1.609,0.854,3.172,2.084,4.688,3.693
	c1.514,1.611,2.982,3.408,4.402,5.396c2.462,3.6,5.137,7.481,8.025,11.647c2.888,4.168,5.469,7.86,7.741,11.079
	c3.503,4.925,6.911,8.521,10.228,10.795c3.312,2.271,7.195,3.74,11.646,4.402v1.42H78.265z M64.202,15.198
	c-2.368-3.693-5.824-6.627-10.369-8.807c-2.272-1.041-4.665-1.798-7.173-2.272c-2.51-0.473-5.138-0.71-7.883-0.71
	c-1.988,0-3.6,0.049-4.83,0.142c-1.231,0.096-2.179,0.19-2.84,0.284c-0.096,0.568-0.191,1.065-0.285,1.491
	c-0.095,0.426-0.166,0.973-0.213,1.634c-0.049,0.663-0.096,1.587-0.142,2.77c-0.049,1.186-0.12,2.865-0.213,5.042
	c-0.096,3.316-0.167,7.056-0.214,11.222c-0.049,4.168-0.07,8.191-0.07,12.073c0,3.884,0,7.293,0,10.227c0,2.841,0,4.642,0,5.397
	c3.882,0,7.504-0.164,10.865-0.498c3.361-0.329,6.605-1.017,9.73-2.06c3.029-0.945,5.633-2.224,7.812-3.835
	c2.178-1.609,3.953-3.431,5.327-5.469c1.372-2.035,2.39-4.236,3.054-6.604c0.662-2.366,0.994-4.829,0.994-7.386
	C67.753,23.105,66.567,18.891,64.202,15.198z"/>
<path fill="#F15D22" d="M187.491,72.866c-2.841,6.44-6.7,12.026-11.576,16.761c-4.878,4.734-10.56,8.38-17.044,10.938
	c-6.488,2.557-13.377,3.834-20.667,3.834c-7.197,0-14.016-1.254-20.454-3.764c-6.44-2.508-12.073-6.059-16.902-10.652
	c-4.829-4.592-8.643-10.086-11.435-16.478c-2.794-6.392-4.189-13.423-4.189-21.093c0-8.143,1.467-15.458,4.402-21.945
	c2.935-6.484,6.889-11.978,11.861-16.477c4.971-4.496,10.795-7.954,17.471-10.368C125.634,1.207,132.664,0,140.05,0
	c8.048,0,15.27,1.42,21.661,4.261c6.393,2.841,11.812,6.654,16.264,11.435c4.45,4.782,7.858,10.298,10.227,16.548
	c2.366,6.249,3.551,12.783,3.551,19.601C191.752,59.421,190.332,66.428,187.491,72.866z M171.938,34.516
	c-1.469-5.87-3.692-11.197-6.676-15.979c-2.982-4.78-6.699-8.665-11.149-11.647c-4.452-2.982-9.707-4.475-15.767-4.475
	c-6.156,0-11.483,1.492-15.979,4.475c-4.498,2.982-8.191,6.843-11.079,11.576c-2.89,4.736-5.021,10.109-6.392,16.121
	c-1.373,6.015-2.06,12.099-2.06,18.253c0,6.439,0.757,12.641,2.272,18.605c1.514,5.967,3.764,11.223,6.747,15.768
	s6.723,8.191,11.222,10.938c4.496,2.748,9.729,4.119,15.695,4.119c5.965,0,11.149-1.514,15.553-4.545
	c4.403-3.029,8.071-6.937,11.009-11.719c2.934-4.781,5.135-10.156,6.604-16.122c1.468-5.965,2.202-11.931,2.202-17.896
	C174.14,46.211,173.405,40.388,171.938,34.516z"/>
<path fill="#F15D22" d="M262.061,103.688v-1.562c4.07-0.188,7.479-1.041,10.228-2.558c2.746-1.514,4.592-3.267,5.539-5.256
	c0.567-1.229,0.993-2.77,1.278-4.615c0.283-1.846,0.474-3.715,0.568-5.61c0.188-6.25,0.283-12.215,0.283-17.896
	c0-5.682,0-11.553,0-17.613V8.38c-3.125,7.009-5.99,13.447-8.594,19.317c-2.605,5.873-5.184,11.601-7.74,17.187
	c-2.557,5.589-5.139,11.293-7.742,17.116c-2.605,5.823-5.467,12.24-8.592,19.246c-0.477,0.947-1.137,2.439-1.99,4.475
	c-0.852,2.037-1.703,4.119-2.557,6.25c-0.852,2.131-1.656,4.072-2.414,5.823c-0.758,1.753-1.232,2.912-1.42,3.479h-0.852
	c-3.033-7.006-6.037-13.967-9.021-20.881c-2.984-6.91-5.896-13.563-8.735-19.955c-2.84-6.393-5.492-12.38-7.955-17.969
	c-2.463-5.586-4.687-10.558-6.676-14.914c-1.988-4.354-3.621-8.001-4.9-10.938c-1.276-2.934-2.153-4.922-2.625-5.966
	c0,6.25-0.025,11.768-0.072,16.548c-0.049,4.783-0.096,9.517-0.143,14.204c-0.049,4.688-0.07,9.637-0.07,14.843
	c0,5.209,0,11.271,0,18.182c0,4.452,0.143,8.309,0.427,11.576s0.993,6.016,2.13,8.238c1.136,2.226,2.863,3.977,5.186,5.255
	c2.318,1.278,5.516,2.202,9.588,2.771v1.42h-37.072v-1.42c3.313-0.662,6.013-1.634,8.097-2.912c2.082-1.277,3.739-3.054,4.971-5.326
	c1.23-2.272,2.131-5.09,2.699-8.451c0.568-3.359,0.898-7.457,0.994-12.286c0.189-4.069,0.33-8.877,0.426-14.417
	c0.094-5.539,0.143-11.48,0.143-17.826c0-2.745,0-5.064,0-6.96c0-1.893,0-3.692,0-5.397c0-1.797,0-3.644,0-5.539
	c0-1.894-0.049-4.213-0.143-6.96c-0.096-2.65-0.663-4.805-1.704-6.463c-1.043-1.655-2.272-2.958-3.692-3.906
	c-1.421-0.945-2.937-1.633-4.546-2.06c-1.611-0.426-2.982-0.732-4.119-0.923V1.42h30.254l33.946,77.27
	c4.166-8.994,8.238-17.942,12.215-26.846c3.979-8.899,7.551-16.949,10.725-24.146c3.172-7.195,5.775-13.185,7.812-17.968
	c2.035-4.78,3.195-7.55,3.479-8.31h30.254v1.421c-3.885,0.096-6.842,0.9-8.877,2.414c-2.036,1.517-3.434,3.316-4.19,5.397
	c-0.568,1.611-0.947,4.119-1.135,7.528c-0.191,3.409-0.334,6.771-0.429,10.085c-0.096,4.545-0.142,8.948-0.142,13.21
	c0,4.261,0,8.571,0,12.925c0,5.113,0,10.228,0,15.341c0,5.021,0.046,10.321,0.142,15.907c0,1.801,0.119,3.623,0.354,5.47
	c0.236,1.847,0.64,3.291,1.207,4.332c0.095,0.19,0.449,0.64,1.066,1.35c0.613,0.71,1.49,1.47,2.627,2.272
	c1.137,0.806,2.557,1.516,4.262,2.131s3.693,0.972,5.966,1.064v1.42H262.061z"/>
<path fill="#F15D22" d="M386.77,103.688h-86.928v-1.42c2.367-0.377,4.568-0.994,6.605-1.847c2.035-0.853,3.715-2.035,5.043-3.552
	c0.473-0.567,0.852-1.396,1.135-2.485c0.285-1.087,0.545-2.344,0.781-3.764c0.235-1.421,0.401-2.912,0.498-4.476
	c0.094-1.562,0.143-3.101,0.143-4.615c0-1.325,0.021-3.125,0.07-5.397c0.047-2.272,0.094-4.758,0.143-7.457
	c0.047-2.698,0.07-5.469,0.07-8.31c0-2.934,0-5.682,0-8.238V24.431c0-1.704-0.023-3.456-0.07-5.256
	c-0.049-1.797-0.143-3.502-0.285-5.113c-0.141-1.608-0.379-3.054-0.709-4.332c-0.334-1.278-0.78-2.201-1.35-2.77
	c-1.42-1.514-2.936-2.486-4.545-2.912c-1.611-0.426-3.693-0.828-6.25-1.207V1.42h78.406l9.657,23.437l-1.42,0.711
	c-7.672-9.563-14.869-16.002-21.592-19.317c-1.611-0.757-4.594-1.421-8.947-1.989c-4.356-0.568-9.657-0.852-15.907-0.852
	c-1.988,0-4.05,0.07-6.181,0.213c-2.131,0.142-3.67,0.309-4.614,0.497c-0.191,1.516-0.355,4.641-0.498,9.374
	c-0.144,4.736-0.214,10.228-0.214,16.477c0,3.601,0,6.63,0,9.091c0,2.464,0.021,4.475,0.07,6.037
	c0.047,1.562,0.072,2.77,0.072,3.622c0,0.759,0,1.278,0,1.562c0.473,0,1.42,0,2.84,0c1.422,0,3.055-0.046,4.9-0.142
	c1.848-0.093,3.692-0.213,5.541-0.355c1.846-0.142,3.383-0.354,4.614-0.639c2.843-0.661,5.207-1.562,7.103-2.699
	c1.895-1.136,3.432-2.508,4.617-4.119c1.182-1.608,2.131-3.479,2.84-5.61c0.711-2.131,1.35-4.521,1.918-7.173h1.705v44.742h-1.705
	c-0.76-3.029-1.918-6.154-3.48-9.374c-1.562-3.219-3.194-5.633-4.899-7.244c-1.517-1.324-3.338-2.415-5.47-3.268
	c-2.129-0.853-4.614-1.371-7.457-1.562c-1.42-0.094-2.604-0.165-3.551-0.214c-0.946-0.046-1.895-0.069-2.84-0.069
	c-0.852,0-1.801,0-2.842,0c-0.947,0-2.178,0-3.691,0c-0.19,1.326-0.285,3.267-0.285,5.822c0,2.557,0,5.209,0,7.954
	c0,1.231,0,2.651,0,4.263c0,1.61,0,3.219,0,4.828c0,1.516,0.021,2.961,0.07,4.332c0.047,1.374,0.072,2.534,0.072,3.479
	c0.094,3.033,0.26,5.896,0.496,8.595c0.235,2.698,0.78,4.712,1.635,6.037c0.852,1.327,2.887,2.272,6.107,2.841
	c3.217,0.566,6.723,0.852,10.51,0.852c1.608,0,3.67-0.045,6.18-0.142c2.508-0.094,5.135-0.331,7.883-0.71
	c3.029-0.378,5.824-1.111,8.381-2.202c2.558-1.087,5.019-2.628,7.386-4.616s4.664-4.426,6.891-7.314
	c2.223-2.887,4.521-6.367,6.889-10.439l1.562,0.426L386.77,103.688z"/>
</svg>
