g 
v -0.703296542 -0.703296542 -0.703296542
v 0.977541208 -0.977541208 -0.977541208
v 0.465664297 -0.465664297 0.465664297
v -0.25422132 -0.25422132 0.25422132
v -0.658710122 0.658710122 -0.658710122
v 0.468500733 0.468500733 -0.468500733
v 0.252661526 0.252661526 0.252661526
v -0.379820228 0.379820228 0.379820228
vt 0 1 0
vt 0 1 0
vt 0 1 0
vt 0 1 0
vt 0 1 0
vt 0 1 0
vt 0 1 0
vt 0 1 0
vn -0.798802555 -0.568707049 -0.196180031
vn 0.796997905 -0.479341865 -0.367458433
vn 0.372980595 -0.316657871 0.872131526
vn -0.512586832 -0.411237031 0.753749907
vn -0.559895575 0.783124387 -0.270616323
vn 0.591160297 0.769290209 -0.242326528
vn 0.461301804 0.567236245 0.682234287
vn -0.404561132 0.460501552 0.790106714
g 
f 2/2/2 1/1/1 5/5/5 6/6/6
f 3/3/3 2/2/2 6/6/6 7/7/7
f 4/4/4 3/3/3 7/7/7 8/8/8
f 1/1/1 4/4/4 8/8/8 5/5/5
f 3/3/3 4/4/4 1/1/1 2/2/2
f 6/6/6 5/5/5 8/8/8 7/7/7
